<svg xmlns="http://www.w3.org/2000/svg" xmlns:xlink="http://www.w3.org/1999/xlink" viewBox="0 0 400.75 1090.59"><defs><style>.cls-1{fill:url(#Degradado_sin_nombre_421);}.cls-2{fill:url(#Degradado_sin_nombre_468);}.cls-3{fill:#006837;opacity:0.51;}.cls-4,.cls-5{opacity:0.4;}.cls-4{fill:url(#Degradado_sin_nombre_399);}.cls-5{fill:url(#Degradado_sin_nombre_399-2);}.cls-6,.cls-7,.cls-8{opacity:0.81;}.cls-6{fill:url(#Degradado_sin_nombre_406);}.cls-7{fill:url(#Degradado_sin_nombre_409);}.cls-8{fill:url(#Degradado_sin_nombre_409-2);}.cls-9{fill:url(#Degradado_sin_nombre_411);}.cls-10{fill:url(#Degradado_sin_nombre_413);}.cls-11{fill:url(#Degradado_sin_nombre_411-2);}.cls-12{fill:url(#Degradado_sin_nombre_411-3);}.cls-13{fill:url(#Degradado_sin_nombre_411-4);}.cls-14{fill:url(#Degradado_sin_nombre_411-5);}.cls-15{fill:url(#Degradado_sin_nombre_411-6);}.cls-16{fill:url(#Degradado_sin_nombre_411-7);}</style><linearGradient id="Degradado_sin_nombre_421" y1="589.66" x2="400.75" y2="589.66" gradientUnits="userSpaceOnUse"><stop offset="0" stop-color="#39b54a"/><stop offset="0.34" stop-color="#009245"/><stop offset="0.68" stop-color="#009245"/><stop offset="1" stop-color="#39b54a"/></linearGradient><linearGradient id="Degradado_sin_nombre_468" x1="89.95" y1="48.71" x2="315.4" y2="48.71" gradientUnits="userSpaceOnUse"><stop offset="0" stop-color="#fbb03b"/><stop offset="0.44" stop-color="#f15a24"/><stop offset="0.68" stop-color="#f15a24"/><stop offset="1" stop-color="#fbb03b"/></linearGradient><radialGradient id="Degradado_sin_nombre_399" cx="106.12" cy="327.28" r="35.01" gradientTransform="translate(-2512.16 433.4) rotate(-90) scale(1 8)" gradientUnits="userSpaceOnUse"><stop offset="0" stop-color="#fff"/><stop offset="0.37" stop-color="#fff" stop-opacity="0.4"/><stop offset="0.98" stop-color="#fff" stop-opacity="0"/></radialGradient><radialGradient id="Degradado_sin_nombre_399-2" cx="298.48" cy="327.28" r="35.06" gradientTransform="translate(-2319.79 625.76) rotate(-90) scale(1 8)" xlink:href="#Degradado_sin_nombre_399"/><linearGradient id="Degradado_sin_nombre_406" x1="199.87" y1="915.69" x2="374.02" y2="915.69" gradientUnits="userSpaceOnUse"><stop offset="0" stop-color="#fff"/><stop offset="0.63" stop-color="#fff" stop-opacity="0.4"/><stop offset="1" stop-color="#fff" stop-opacity="0"/></linearGradient><linearGradient id="Degradado_sin_nombre_409" x1="224.66" y1="936.84" x2="378.62" y2="936.84" gradientUnits="userSpaceOnUse"><stop offset="0" stop-color="#fff" stop-opacity="0.8"/><stop offset="0.63" stop-color="#fff" stop-opacity="0.4"/><stop offset="1" stop-color="#fff" stop-opacity="0"/></linearGradient><linearGradient id="Degradado_sin_nombre_409-2" x1="252.54" y1="1012.89" x2="392.42" y2="1012.89" xlink:href="#Degradado_sin_nombre_409"/><radialGradient id="Degradado_sin_nombre_411" cx="119.7" cy="1018.69" r="18.54" gradientUnits="userSpaceOnUse"><stop offset="0" stop-color="#fff" stop-opacity="0.8"/><stop offset="0.35" stop-color="#fff" stop-opacity="0.4"/><stop offset="1" stop-color="#fff" stop-opacity="0"/></radialGradient><radialGradient id="Degradado_sin_nombre_413" cx="121.71" cy="975.3" r="18.54" gradientUnits="userSpaceOnUse"><stop offset="0" stop-color="#fff" stop-opacity="0.8"/><stop offset="0.15" stop-color="#fff" stop-opacity="0.4"/><stop offset="1" stop-color="#fff" stop-opacity="0"/></radialGradient><radialGradient id="Degradado_sin_nombre_411-2" cx="122.9" cy="410.37" r="18.54" gradientTransform="translate(-27.87 -279.97) scale(1.21 1.67)" xlink:href="#Degradado_sin_nombre_411"/><radialGradient id="Degradado_sin_nombre_411-3" cx="243.98" cy="410.37" r="18.54" gradientTransform="translate(-27.87 -279.97) scale(1.21 1.67)" xlink:href="#Degradado_sin_nombre_411"/><radialGradient id="Degradado_sin_nombre_411-4" cx="270.12" cy="458.83" r="12.48" gradientTransform="translate(-27.87 -279.97) scale(1.21 1.67)" xlink:href="#Degradado_sin_nombre_411"/><radialGradient id="Degradado_sin_nombre_411-5" cx="114.53" cy="458.83" r="12.48" gradientTransform="translate(-27.87 -279.97) scale(1.21 1.67)" xlink:href="#Degradado_sin_nombre_411"/><radialGradient id="Degradado_sin_nombre_411-6" cx="232.26" cy="242.2" r="12.48" gradientTransform="translate(-27.87 -279.97) scale(1.21 1.67)" xlink:href="#Degradado_sin_nombre_411"/><radialGradient id="Degradado_sin_nombre_411-7" cx="150.49" cy="242.2" r="12.48" gradientTransform="translate(-27.87 -279.97) scale(1.21 1.67)" xlink:href="#Degradado_sin_nombre_411"/></defs><title>BOTELLA PLASTICO</title><g id="Capa_2" data-name="Capa 2"><g id="BOTELLA_PLASTICO" data-name="BOTELLA PLASTICO"><path class="cls-1" d="M393.32,533.26a32.6,32.6,0,0,0,7.43-20.73V474.08a29.52,29.52,0,0,0-12.12-23.94c-11.3-8.15-26.55-22.44-27.61-40.7-1.51-26.08,37.93,0,39.66-44.83S374.81,249.08,349,207.7c-16.16-25.86-35-47-46.89-59.24a41.59,41.59,0,0,1-11.73-29v-9.51a21.21,21.21,0,0,0-21.22-21.21H131.64a21.21,21.21,0,0,0-21.21,21.21v9.51a41.64,41.64,0,0,1-11.73,29C86.83,160.69,68,181.84,51.8,207.7,25.94,249.08-1.65,319.78.08,364.61s41.16,18.75,39.65,44.83c-1,18.26-16.31,32.55-27.6,40.7A29.5,29.5,0,0,0,0,474.08v38.45a32.66,32.66,0,0,0,7.43,20.73l4.22,5.12A13.39,13.39,0,0,1,11.16,556l-7.62,8.28A13.34,13.34,0,0,0,0,573.29v345.6a13.35,13.35,0,0,0,2.58,7.9l4,5.52a13.37,13.37,0,0,1-2,18h0A13.38,13.38,0,0,0,0,960.39v70.81a53.68,53.68,0,0,0,14.7,36.91l.65.68a53.7,53.7,0,0,0,34.38,16.58l150.65,5.22L351,1085.37a53.68,53.68,0,0,0,34.38-16.58l.65-.68a53.68,53.68,0,0,0,14.7-36.91V960.39a13.37,13.37,0,0,0-4.59-10.09h0a13.37,13.37,0,0,1-2-18l4-5.52a13.35,13.35,0,0,0,2.58-7.9V573.29a13.38,13.38,0,0,0-3.53-9.06L389.6,556a13.39,13.39,0,0,1-.49-17.57Z"/><path class="cls-2" d="M108.13,0H297.22A18.18,18.18,0,0,1,315.4,18.18V89.13a8.29,8.29,0,0,1-8.29,8.29H98.25A8.29,8.29,0,0,1,90,89.13V18.18A18.18,18.18,0,0,1,108.13,0Z"/><ellipse class="cls-3" cx="204.18" cy="382.78" rx="152.6" ry="5.17"/><path class="cls-3" d="M275.06,140.84c0-2.49-33.73-4.5-75.33-4.5s-75.33,2-75.33,4.5,33.72,4.49,75.33,4.49c15.84,0,66.55,2.54,73.16,13.1C283.37,175.17,275.06,142.37,275.06,140.84Z"/><ellipse class="cls-3" cx="195.56" cy="418.16" rx="152.6" ry="5.17"/><ellipse class="cls-3" cx="195.56" cy="493.95" rx="152.6" ry="5.17"/><ellipse class="cls-3" cx="213.65" cy="969.5" rx="152.6" ry="5.17"/><ellipse class="cls-3" cx="208.92" cy="1072.89" rx="157.33" ry="8.16"/><path class="cls-4" d="M137.8,327.28c0,21-4.31,38.05-25.32,38.05a38,38,0,0,1,0-76.09C133.49,289.24,137.8,306.27,137.8,327.28Z"/><path class="cls-5" d="M330.27,327.28a38,38,0,0,1-38,38.05c-21,0-25.54-13.7-25.54-34.71s4.53-41.38,25.54-41.38A38,38,0,0,1,330.27,327.28Z"/><path class="cls-6" d="M374,912.25c0,6.43-37.9,9.36-86,9.36s-88.16-2.93-88.16-9.36,37.91,1.6,86,1.6S374,905.83,374,912.25Z"/><path class="cls-7" d="M378.62,933.61c0,6.43-16.71,9-64.8,9s-89.16,1.16-89.16-5.27,38.91-2.49,87-2.49S378.62,927.19,378.62,933.61Z"/><path class="cls-8" d="M392.42,1004.66c0,6.43-20.78,17.88-68.87,17.88s-71,1.08-71-5.35,20.77-2.41,68.86-2.41S392.42,998.24,392.42,1004.66Z"/><ellipse class="cls-9" cx="119.7" cy="1018.69" rx="25.58" ry="5.8"/><ellipse class="cls-10" cx="121.71" cy="975.3" rx="25.58" ry="5.8"/><ellipse class="cls-11" cx="120.92" cy="403.33" rx="30.96" ry="9.66"/><ellipse class="cls-12" cx="267.52" cy="403.33" rx="30.96" ry="9.66"/><ellipse class="cls-13" cx="299.15" cy="484.03" rx="20.83" ry="6.5"/><ellipse class="cls-14" cx="110.78" cy="484.03" rx="20.83" ry="6.5"/><ellipse class="cls-15" cx="253.33" cy="123.31" rx="20.83" ry="6.5"/><ellipse class="cls-16" cx="154.33" cy="123.31" rx="20.83" ry="6.5"/></g></g></svg>