<svg xmlns="http://www.w3.org/2000/svg" xmlns:xlink="http://www.w3.org/1999/xlink" viewBox="0 0 301.34 1077.18"><defs><style>.cls-1{fill:url(#Degradado_sin_nombre_49);}.cls-2{fill:url(#Degradado_sin_nombre_88);}</style><linearGradient id="Degradado_sin_nombre_49" x1="301.34" y1="600.44" x2="0" y2="600.44" gradientUnits="userSpaceOnUse"><stop offset="0" stop-color="#666"/><stop offset="0.31" stop-color="#d1d1d1"/><stop offset="0.45" stop-color="#fff"/><stop offset="0.5" stop-color="#d6d6d6"/><stop offset="0.56" stop-color="#a6a6a6"/><stop offset="0.62" stop-color="#7f7f7f"/><stop offset="0.68" stop-color="#646464"/><stop offset="0.73" stop-color="#535353"/><stop offset="0.77" stop-color="#4d4d4d"/><stop offset="0.8" stop-color="#545454"/><stop offset="0.93" stop-color="#727272"/><stop offset="1" stop-color="#7d7d7d"/></linearGradient><linearGradient id="Degradado_sin_nombre_88" x1="86.76" y1="63.91" x2="214.58" y2="63.91" gradientUnits="userSpaceOnUse"><stop offset="0"/><stop offset="0.25"/><stop offset="0.33"/><stop offset="0.4" stop-color="#090909"/><stop offset="0.53" stop-color="#181818"/><stop offset="0.59" stop-color="#3d3d3d"/><stop offset="0.64" stop-color="#5b5b5b"/><stop offset="0.67" stop-color="#666"/><stop offset="0.67" stop-color="#646464"/><stop offset="0.7" stop-color="#2e2e2e"/><stop offset="0.72" stop-color="#0d0d0d"/><stop offset="0.73"/><stop offset="1"/></linearGradient></defs><title>Recurso 1</title><g id="Capa_2" data-name="Capa 2"><g id="Botella"><path class="cls-1" d="M300.28,294.06c-.38-12.36-1.35-34.65-15.48-55-4.49-6.48-14.52-15.3-34.39-32.67-27.83-24.33-33.52-27.71-37.83-37.8-3.26-7.63-9.05-19.85-5.44-37.42a5.42,5.42,0,0,0-5-6.49c-21.11-1.26-81.82-1.26-102.92,0a5.43,5.43,0,0,0-5,6.49c3.62,17.57-2.17,29.79-5.43,37.42-4.31,10.09-10,13.47-37.83,37.8C31.06,223.73,21,232.55,16.54,239c-14.13,20.38-15.1,42.67-15.48,55-5.09,164.87,10.39,624.39,0,727.4-1.19,4.06-.65,15.6,3.87,25.37,18.72,40.46,272.76,40.46,291.48,0,4.52-9.77,5.06-21.31,3.87-25.37C289.89,918.45,305.37,458.93,300.28,294.06Z"/><path class="cls-2" d="M214.58,63.91a63.91,63.91,0,0,0-127.82,0c0,2.2.11,4.38.32,6.52a9.28,9.28,0,0,0-.32,2.37v46.14a8.88,8.88,0,0,0,8.88,8.89H205.7a8.89,8.89,0,0,0,8.88-8.89V72.8a8.86,8.86,0,0,0-.33-2.37A63.82,63.82,0,0,0,214.58,63.91Zm-63.7,29.67A38.12,38.12,0,1,1,189,55.46,38.12,38.12,0,0,1,150.88,93.58Z"/><path d="M86.76,92.86,99.45,91.2A10.88,10.88,0,0,0,107,86.59l9.76-14.18A38.12,38.12,0,0,1,182.38,34c16.45-4.23,21-13.26,2.27-24.2A63.9,63.9,0,0,0,86.89,59.71a65.9,65.9,0,0,0,.19,10.72,9.28,9.28,0,0,0-.32,2.37Z"/></g></g></svg>