<?xml version="1.0" encoding="UTF-8" standalone="no"?>
<!DOCTYPE svg PUBLIC "-//W3C//DTD SVG 1.1//EN" "http://www.w3.org/Graphics/SVG/1.1/DTD/svg11.dtd">
<svg width="100%" height="100%" viewBox="0 0 1094 311" version="1.1" xmlns="http://www.w3.org/2000/svg" xmlns:xlink="http://www.w3.org/1999/xlink" xml:space="preserve" xmlns:serif="http://www.serif.com/" style="fill-rule:evenodd;clip-rule:evenodd;stroke-miterlimit:10;">
    <g transform="matrix(1,0,0,1,-7256,-3103)">
        <g id="logo" transform="matrix(0.42345,0,0,0.42345,7645.39,4583.83)">
            <g transform="matrix(2.39013,0,0,2.39013,-1062.55,-3497.93)">
                <path d="M363.55,140.48C335.362,140.502 312.18,163.702 312.18,191.89C312.18,220.093 335.387,243.3 363.59,243.3C391.793,243.3 415,220.093 415,191.89C415,191.887 415,191.883 415,191.88C414.989,163.679 391.781,140.48 363.58,140.48C363.57,140.48 363.56,140.48 363.55,140.48Z" style="fill:rgb(225,56,40);fill-rule:nonzero;stroke:white;stroke-width:3.76px;"/>
                <path d="M206,138.47C206.44,136.13 207.23,134.89 208.35,134.89C209.47,134.89 210.25,135.56 212.06,139.14L249.62,216.62L287.09,138.19C288.17,135.99 288.88,134.89 290.09,134.89C291.3,134.89 292.18,136.28 292.56,139.14L305.1,224C306.37,232.67 307.72,236.63 311.85,237.89C314.609,238.799 317.496,239.258 320.4,239.25C321.62,239.25 322.6,239.39 322.6,240.25C322.6,241.36 320.93,241.76 319.02,241.76C315.56,241.76 296.57,241.36 291.02,240.97C287.85,240.67 287.02,240.25 287.02,239.43C287.02,238.61 287.51,238.34 288.51,237.93C289.35,237.65 289.76,235.93 289.2,232L281,171.55L280.44,171.55L250.44,233.93C247.27,240.38 246.6,241.63 245.35,241.63C244.1,241.63 242.74,238.87 240.54,234.75C237.22,228.43 226.35,207.4 224.68,203.56C223.48,200.7 215.22,183.36 210.39,173.07L209.85,173.07L202.69,227.77C202.416,229.899 202.272,232.043 202.26,234.19C202.26,236.82 204.07,238.08 206.43,238.59C208.313,239.047 210.243,239.278 212.18,239.28C213.28,239.28 214.18,239.58 214.18,240.28C214.18,241.54 212.96,241.79 210.91,241.79C205.13,241.79 198.91,241.39 196.44,241.39C193.97,241.39 187.21,241.79 182.81,241.79C181.42,241.79 180.36,241.54 180.36,240.28C180.36,239.62 181.17,239.28 182.56,239.28C183.941,239.304 185.321,239.167 186.67,238.87C190.53,238.08 191.67,232.7 192.33,228.02L206,138.47Z" style="fill:rgb(38,38,38);fill-rule:nonzero;"/>
                <path d="M551.83,160.57L533.83,160.98C526.83,161.12 523.94,161.98 522.15,164.56C521.26,165.762 520.562,167.094 520.08,168.51C519.8,169.51 519.54,170.04 518.7,170.04C517.86,170.04 517.62,169.35 517.62,168.13C517.62,166.21 519.95,154.93 520.23,153.97C520.48,152.46 520.92,151.76 521.59,151.76C522.59,151.76 523.78,152.76 526.82,153.17C530.841,153.556 534.88,153.729 538.92,153.69L588,153.69C590.762,153.709 593.522,153.535 596.26,153.17C598.18,152.89 599.15,152.59 599.58,152.59C600.4,152.59 600.52,153.3 600.52,155.09C600.52,157.55 600.25,166.21 600.25,169.23C600.09,170.48 599.84,171.14 599.15,171.14C598.15,171.14 597.91,170.59 597.77,168.8L597.64,167.59C597.33,164.59 594.21,160.98 583.34,160.85L568.07,160.57L568.07,207.83C568.07,218.52 568.23,227.77 568.75,232.83C569.17,236.14 569.84,238.33 573.43,238.83C575.477,239.12 577.543,239.257 579.61,239.24C580.99,239.24 581.55,239.95 581.55,240.48C581.55,241.31 580.55,241.71 579.19,241.71C571.19,241.71 563.12,241.31 559.67,241.31C556.92,241.31 548.67,241.71 543.84,241.71C542.35,241.71 541.51,241.31 541.51,240.48C541.51,239.95 541.91,239.24 543.43,239.24C544.862,239.296 546.295,239.158 547.69,238.83C550.18,238.29 550.87,236.1 551.27,232.66C551.82,227.73 551.82,218.48 551.82,207.79L551.83,160.57Z" style="fill:rgb(38,38,38);fill-rule:nonzero;"/>
                <path d="M614.22,187.23C614.22,169.49 614.22,166.23 614.08,162.48C613.82,158.48 612.69,157.27 608.83,156.19C607.243,155.852 605.621,155.708 604,155.76C602.8,155.76 602,155.37 602,154.53C602,153.69 602.94,153.41 604.73,153.41C611.04,153.41 618.73,153.69 622.22,153.69C626.07,153.69 652.92,153.84 655.22,153.69C656.932,153.574 658.636,153.35 660.32,153.02C660.944,152.794 661.582,152.607 662.23,152.46C662.95,152.46 663.05,153.02 663.05,153.58C662.561,156.069 662.244,158.588 662.1,161.12C661.96,162.36 661.69,167.43 661.42,168.8C661.29,169.35 661.01,170.73 660.01,170.73C659.21,170.73 659.09,170.18 659.09,169.23C659.091,167.775 658.806,166.334 658.25,164.99C657.25,162.89 656.33,161.25 650.25,160.71C648.18,160.44 633.73,160.16 631.25,160.16C630.68,160.16 630.41,160.57 630.41,161.25L630.41,190.06C630.41,190.81 630.54,191.35 631.25,191.35C633.99,191.35 649.69,191.35 652.46,191.08C655.23,190.81 657.11,190.5 658.21,189.27C659.21,188.43 659.59,187.77 660.12,187.77C660.65,187.77 661.12,188.32 661.12,189.02C661.12,189.72 660.87,191.6 660.12,197.52C659.89,199.86 659.59,204.52 659.59,205.36C659.59,206.2 659.47,207.99 658.35,207.99C657.52,207.99 657.23,207.57 657.23,206.99C657.11,205.78 657.11,204.25 656.83,202.74C656.16,200.41 654.65,198.62 650.09,198.21C647.87,197.93 634.09,197.68 631.09,197.68C630.51,197.68 630.38,198.21 630.38,198.89L630.38,208.24C630.38,212.24 630.26,222.12 630.38,225.57C630.65,233.57 634.38,235.31 646.77,235.31C649.91,235.31 655.01,235.16 658.18,233.8C661.35,232.44 662.6,229.94 663.42,225.14C663.68,223.91 663.96,223.35 664.8,223.35C665.64,223.35 665.87,224.86 665.87,226.09C665.712,230.43 665.186,234.749 664.3,239C663.48,242 662.38,242 657.83,242C648.77,242 641.47,241.86 635.53,241.59C629.59,241.32 625.09,241.31 621.53,241.31C620.18,241.31 617.53,241.46 614.66,241.46C611.79,241.46 608.75,241.71 606.27,241.71C604.76,241.71 603.95,241.31 603.95,240.48C603.95,239.95 604.33,239.24 605.86,239.24C607.295,239.289 608.731,239.152 610.13,238.83C612.56,238.29 613.28,236.1 613.71,232.66C614.27,227.73 614.27,218.48 614.27,207.79L614.22,187.23Z" style="fill:rgb(38,38,38);fill-rule:nonzero;"/>
                <path d="M687.92,225.82C688.19,234.9 689.71,237.64 692.06,238.45C694.107,239.071 696.242,239.351 698.38,239.28C699.76,239.28 700.44,239.83 700.44,240.52C700.44,241.52 699.34,241.75 697.69,241.75C689.83,241.75 684.21,241.35 682.01,241.35C680.91,241.35 675.11,241.75 668.92,241.75C667.28,241.75 666.19,241.63 666.19,240.52C666.19,239.83 667,239.28 668.07,239.28C669.925,239.318 671.779,239.133 673.59,238.73C676.79,237.92 677.17,234.73 677.33,224.6L678.42,155.37C678.42,153.02 679.25,151.37 680.47,151.37C682.01,151.37 683.64,153.15 685.71,155.2C687.25,156.7 705.38,175.25 722.99,192.42C731.28,200.5 747.38,217.02 749.14,218.65L749.72,218.65L748.48,166.75C748.35,159.6 747.22,157.53 744.33,156.45C742.56,155.74 739.68,155.74 738.01,155.74C736.5,155.74 736.1,155.2 736.1,154.51C736.1,153.56 737.33,153.39 739.1,153.39C745.48,153.39 751.92,153.67 754.5,153.67C755.91,153.67 760.5,153.39 766.4,153.39C768.03,153.39 769.11,153.56 769.11,154.51C769.11,155.2 768.45,155.74 767.04,155.74C765.785,155.688 764.53,155.833 763.32,156.17C760.05,157.12 759.06,159.17 758.93,165.78L757.57,239.4C757.57,242.02 756.57,243.14 755.63,243.14C753.697,243.008 751.896,242.107 750.63,240.64C743.07,233.64 727.94,219.22 715.27,206.97C702.07,194.36 689.27,180.2 686.92,178.13L686.5,178.13L687.92,225.82Z" style="fill:rgb(38,38,38);fill-rule:nonzero;"/>
                <path d="M435.86,225.82C436.14,234.9 437.63,237.64 440.01,238.45C442.057,239.071 444.192,239.351 446.33,239.28C447.71,239.28 448.39,239.83 448.39,240.52C448.39,241.52 447.27,241.75 445.63,241.75C437.77,241.75 432.15,241.35 429.96,241.35C428.85,241.35 423.05,241.75 416.88,241.75C415.22,241.75 414.13,241.63 414.13,240.52C414.13,239.83 414.94,239.28 416.04,239.28C417.889,239.314 419.735,239.13 421.54,238.73C424.72,237.92 425.12,234.73 425.27,224.6L426.37,155.37C426.37,153.02 427.19,151.37 428.42,151.37C429.96,151.37 431.59,153.15 433.64,155.2C435.19,156.7 453.32,175.25 470.94,192.42C479.23,200.5 495.32,217.02 497.11,218.65L497.67,218.65L496.44,166.75C496.3,159.6 495.17,157.53 492.27,156.45C490.51,155.74 487.62,155.74 485.98,155.74C484.34,155.74 483.98,155.2 483.98,154.51C483.98,153.56 485.23,153.39 486.98,153.39C493.33,153.39 499.8,153.67 502.4,153.67C503.79,153.67 508.32,153.39 514.27,153.39C515.91,153.39 516.99,153.56 516.99,154.51C516.99,155.2 516.32,155.74 514.93,155.74C513.665,155.688 512.4,155.833 511.18,156.17C507.93,157.12 506.94,159.17 506.8,165.78L505.45,239.4C505.45,242.02 504.45,243.14 503.51,243.14C501.577,243.008 499.776,242.107 498.51,240.64C490.95,233.64 475.81,219.22 463.17,206.97C449.93,194.36 437.17,180.2 434.81,178.13L434.37,178.13L435.86,225.82Z" style="fill:rgb(38,38,38);fill-rule:nonzero;"/>
                <path d="M775.21,187.23C775.21,169.49 775.21,166.23 775.1,162.48C774.82,158.48 773.7,157.27 769.86,156.19C768.28,155.855 766.665,155.711 765.05,155.76C763.82,155.76 762.98,155.37 762.98,154.53C762.98,153.69 763.93,153.41 765.74,153.41C772.06,153.41 779.74,153.69 783.2,153.69C787.07,153.69 813.9,153.84 816.2,153.69C817.909,153.571 819.609,153.347 821.29,153.02C821.918,152.795 822.559,152.608 823.21,152.46C823.93,152.46 824.06,153.02 824.06,153.58C823.541,156.065 823.207,158.585 823.06,161.12C822.91,162.36 822.64,167.43 822.39,168.8C822.22,169.35 821.96,170.73 820.96,170.73C820.17,170.73 820.02,170.18 820.02,169.23C820.035,167.775 819.753,166.332 819.19,164.99C818.19,162.89 817.27,161.25 811.19,160.71C809.12,160.44 794.69,160.16 792.19,160.16C791.64,160.16 791.37,160.57 791.37,161.25L791.37,190.06C791.37,190.81 791.51,191.35 792.19,191.35C794.96,191.35 810.64,191.35 813.42,191.08C816.2,190.81 818.07,190.5 819.17,189.27C820.17,188.43 820.56,187.77 821.17,187.77C821.78,187.77 822.12,188.32 822.12,189.02C822.12,189.72 821.84,191.6 821.17,197.52C820.88,199.86 820.61,204.52 820.61,205.36C820.61,206.2 820.48,207.99 819.36,207.99C818.56,207.99 818.26,207.57 818.26,206.99C818.12,205.78 818.12,204.25 817.85,202.74C817.16,200.41 815.62,198.62 811.09,198.21C808.89,197.93 795.09,197.68 792.09,197.68C791.53,197.68 791.39,198.21 791.39,198.89L791.39,208.24C791.39,212.24 791.24,222.12 791.39,225.57C791.66,233.57 795.39,235.31 807.79,235.31C810.97,235.31 816.05,235.16 819.19,233.8C822.33,232.44 823.63,229.94 824.43,225.14C824.67,223.91 824.98,223.35 825.79,223.35C826.79,223.35 826.92,224.86 826.92,226.09C826.745,230.431 826.203,234.75 825.3,239C824.5,242 823.41,242 818.88,242C809.78,242 802.46,241.86 796.53,241.59C790.6,241.32 786.1,241.31 782.53,241.31C781.15,241.31 778.53,241.46 775.64,241.46C772.75,241.46 769.7,241.71 767.22,241.71C765.73,241.71 764.89,241.31 764.89,240.48C764.89,239.95 765.3,239.24 766.81,239.24C768.245,239.289 769.68,239.151 771.08,238.83C773.61,238.29 774.25,236.1 774.65,232.66C775.2,227.73 775.2,218.48 775.2,207.79L775.21,187.23Z" style="fill:rgb(38,38,38);fill-rule:nonzero;"/>
                <path d="M912.79,233.93C912.79,237.1 912.79,237.2 911.29,238.08C903.16,242.08 891.19,243.27 881.7,243.27C851.96,243.27 825.7,229.81 825.7,197.52C825.7,178.82 835.7,165.8 846.87,159.34C858.45,152.59 869.32,151.76 879.5,151.76C886.705,151.857 893.893,152.502 901,153.69C904.188,154.281 907.406,154.695 910.64,154.93C912.03,155.09 912.28,155.5 912.28,156.32C911.634,162.709 911.367,169.13 911.48,175.55C911.48,177.31 910.77,178.15 909.8,178.15C908.98,178.15 908.7,177.61 908.58,176.65C908.355,173.057 906.887,169.651 904.43,167.02C900.85,163.32 891.77,158.1 878.16,158.1C871.53,158.1 863.16,158.24 854.74,164.99C848.02,170.48 843.59,179.12 843.59,193.39C843.59,218.52 859.85,236.82 885.73,236.82C888.88,236.82 891.38,236.82 894.24,235.57C896.04,234.75 896.6,233.57 896.6,231.45L896.6,220.74C896.6,214.94 896.6,210.57 896.47,206.99C896.31,202.99 895.1,201.77 891.23,200.7C889.685,200.38 888.108,200.235 886.53,200.27C885.43,200.27 884.6,199.72 884.6,199.03C884.6,198.03 885.6,197.93 887.21,197.93C893.56,197.93 902.21,198.21 905.81,198.21C909.69,198.21 916.01,197.93 919.98,197.93C921.66,197.93 922.45,198.07 922.45,199.03C922.367,199.78 921.692,200.334 920.94,200.27C919.831,200.296 918.728,200.44 917.65,200.7C914.34,201.23 913.1,202.87 912.97,206.99C912.83,210.57 912.83,215.25 912.83,220.99L912.79,233.93Z" style="fill:rgb(38,38,38);fill-rule:nonzero;"/>
                <path d="M931,187.23C931,169.49 931,166.23 930.87,162.48C930.59,158.48 929.48,157.27 925.63,156.19C924.05,155.853 922.435,155.709 920.82,155.76C919.59,155.76 918.77,155.37 918.77,154.53C918.77,153.69 919.77,153.41 921.51,153.41C927.86,153.41 935.51,153.69 938.01,153.69C942.14,153.69 953.15,153.41 956.88,153.41C964.58,153.41 973.4,154.12 979.88,158.41C985.082,162.119 988.239,168.073 988.39,174.46C988.39,183.13 983.39,190.83 971.62,200.29C982.34,213.47 990.87,224.05 998.19,231.29C1004.92,238.05 1009.19,238.56 1011.13,238.99C1012.08,239.197 1013.05,239.284 1014.02,239.25C1014.77,239.197 1015.43,239.747 1015.52,240.49C1015.52,241.49 1014.68,241.72 1013.18,241.72L1001.62,241.72C994.87,241.72 991.62,241.04 988.39,239.39C983.17,236.79 978.63,231.29 971.9,222.22C967.07,215.91 961.98,208.08 960.47,206.29C959.902,205.71 959.11,205.403 958.3,205.45L947.41,205.17C947.367,205.164 947.324,205.16 947.28,205.16C946.798,205.16 946.4,205.558 946.4,206.04C946.4,206.084 946.404,206.127 946.41,206.17L946.41,207.83C946.41,218.67 946.53,227.77 947.1,232.7C947.51,236.14 948.1,238.33 951.79,238.87C953.754,239.149 955.736,239.286 957.72,239.28C958.458,239.243 959.107,239.787 959.2,240.52C959.2,241.35 958.28,241.75 956.74,241.75C949.74,241.75 939.66,241.35 937.87,241.35C935.54,241.35 927.87,241.75 923.01,241.75C921.5,241.75 920.66,241.35 920.66,240.52C920.66,239.99 921.07,239.28 922.6,239.28C924.035,239.329 925.47,239.191 926.87,238.87C929.33,238.33 930.04,236.14 930.43,232.7C930.99,227.77 930.99,218.52 930.99,207.83L931,187.23ZM946.42,196.3C946.42,197.52 946.7,197.93 947.52,198.3C950.528,199.109 953.636,199.49 956.75,199.43C961.56,199.43 963.22,198.99 965.29,197.48C968.98,194.86 973.14,189.79 973.14,180.18C973.14,163.67 961.81,159.45 954.68,159.45C952.286,159.389 949.891,159.527 947.52,159.86C946.7,160.12 946.42,160.53 946.42,161.49L946.42,196.3Z" style="fill:rgb(38,38,38);fill-rule:nonzero;"/>
                <path d="M994.17,197.52C994.17,177.61 1008.17,151.76 1044.97,151.76C1075.53,151.76 1094.52,168.69 1094.52,195.45C1094.52,222.21 1074.97,243.27 1043.71,243.27C1008.47,243.27 994.17,218.28 994.17,197.52ZM1076.46,199.72C1076.46,173.9 1060.92,157.95 1041.39,157.95C1027.86,157.95 1012.05,165.12 1012.05,193.95C1012.05,218 1025.83,236.95 1048.65,236.95C1057.21,236.92 1076.46,233 1076.46,199.72Z" style="fill:rgb(38,38,38);fill-rule:nonzero;"/>
                <path d="M179.75,294.84C146.28,303.19 73.37,311.3 79.27,255.47C81.27,236.89 91.9,219.54 102.27,204.73C118,182.26 138.11,163 158.93,145.51C183.43,124.92 208.87,109.17 237.16,94.77C269.45,78.34 301.47,68.41 334.79,61.28C354.22,57.13 373.16,55.03 389.66,64.45C413.43,78 397,132.13 397,132.13L415.63,127C415.63,127 430.9,70.6 404.3,57.17C384.75,47.3 358.9,50.23 338.3,54.36C277.25,66.61 220.3,92.78 168.95,128.62C127,158 75.28,200.71 61.84,253.71C57.24,271.87 62.31,289.24 78.53,298.97C102.99,313.64 138.11,306.51 163.77,300.1C168.06,299.04 183.22,293.98 179.77,294.84L179.75,294.84Z" style="fill:rgb(38,38,38);fill-rule:nonzero;"/>
                <path d="M208.39,279L198.79,279L198.79,275.58L222.12,275.58L222.12,279L212.49,279L212.49,306.8L208.39,306.8L208.39,279Z" style="fill:rgb(38,38,38);fill-rule:nonzero;"/>
                <path d="M257.3,292.17L245.09,292.17L245.09,303.41L258.75,303.41L258.75,306.8L241,306.8L241,275.62L258.08,275.62L258.08,279L245.08,279L245.08,288.84L257.3,288.84L257.3,292.17Z" style="fill:rgb(38,38,38);fill-rule:nonzero;"/>
                <path d="M301.39,305.8C298.759,306.888 295.925,307.4 293.08,307.3C284.18,307.3 277.54,301.75 277.54,291.48C277.54,281.67 284.24,275.11 294.01,275.11C296.569,275.008 299.119,275.483 301.47,276.5L300.47,279.79C298.488,278.886 296.328,278.442 294.15,278.49C286.77,278.49 281.85,283.15 281.85,291.34C281.85,299.01 286.3,303.88 293.93,303.88C296.22,303.911 298.492,303.465 300.6,302.57L301.39,305.8Z" style="fill:rgb(38,38,38);fill-rule:nonzero;"/>
                <path d="M321.92,306.8L321.92,275.62L326.41,275.62L336.41,291.38C338.513,294.626 340.388,298.014 342.02,301.52L342.16,301.52C341.78,297.36 341.7,293.52 341.7,288.76L341.7,275.62L345.52,275.62L345.52,306.8L341.4,306.8L331.4,290.97C329.216,287.64 327.262,284.165 325.55,280.57L325.42,280.57C325.64,284.5 325.71,288.26 325.71,293.42L325.71,306.8L321.92,306.8Z" style="fill:rgb(38,38,38);fill-rule:nonzero;"/>
                <path d="M380.37,307.3C372,307.3 366.2,300.92 366.2,291.48C366.2,281.6 372.38,275.11 380.78,275.11C389.46,275.11 395.02,281.62 395.02,290.88C395.02,301.56 388.41,307.3 380.42,307.3L380.37,307.3ZM380.56,304.01C387.01,304.01 390.66,298.14 390.66,291.07C390.66,284.87 387.39,278.38 380.61,278.38C373.83,278.38 370.46,284.63 370.46,291.38C370.46,297.95 374.11,304.01 380.51,304.01L380.56,304.01Z" style="fill:rgb(38,38,38);fill-rule:nonzero;"/>
                <path d="M415.63,275.62L419.75,275.62L419.75,303.41L433.22,303.41L433.22,306.8L415.63,306.8L415.63,275.62Z" style="fill:rgb(38,38,38);fill-rule:nonzero;"/>
                <path d="M465.44,307.3C457.07,307.3 451.26,300.92 451.26,291.48C451.26,281.6 457.43,275.11 465.85,275.11C474.5,275.11 480.06,281.62 480.06,290.88C480.06,301.56 473.48,307.3 465.47,307.3L465.44,307.3ZM465.63,304.01C472.07,304.01 475.72,298.14 475.72,291.07C475.72,284.87 472.45,278.38 465.66,278.38C458.87,278.38 455.52,284.63 455.52,291.38C455.52,297.95 459.17,304.01 465.57,304.01L465.63,304.01Z" style="fill:rgb(38,38,38);fill-rule:nonzero;"/>
                <path d="M524.77,305.41C521.652,306.531 518.364,307.106 515.05,307.11C510.29,307.11 506.35,305.92 503.26,303.01C500.293,299.882 498.707,295.688 498.86,291.38C498.86,282.09 505.37,275.3 515.93,275.3C518.632,275.238 521.319,275.721 523.83,276.72L522.83,280.03C520.636,279.032 518.238,278.563 515.83,278.66C508.17,278.66 503.17,283.39 503.17,291.21C503.17,299.03 507.95,303.79 515.33,303.79C517.176,303.89 519.023,303.601 520.75,302.94L520.75,293.65L514.39,293.65L514.39,290.43L524.77,290.43L524.77,305.41Z" style="fill:rgb(38,38,38);fill-rule:nonzero;"/>
                <path d="M555.27,268.51L549.27,273.95L546,273.95L550.4,268.51L555.27,268.51ZM550.4,275.62L550.4,306.8L546.29,306.8L546.29,275.62L550.4,275.62Z" style="fill:rgb(38,38,38);fill-rule:nonzero;"/>
                <path d="M578,297L574.74,306.83L570.53,306.83L581.24,275.65L586.14,275.65L596.89,306.83L592.55,306.83L589.14,297L578,297ZM588.33,293.88L585.2,284.88C584.54,282.88 584.07,280.99 583.62,279.18L583.46,279.18C583.04,280.99 582.53,282.93 581.93,284.83L578.85,293.83L588.33,293.88Z" style="fill:rgb(38,38,38);fill-rule:nonzero;"/>
                <path d="M648.55,292.17L636.34,292.17L636.34,303.41L650,303.41L650,306.8L632.23,306.8L632.23,275.62L649.31,275.62L649.31,279L636.31,279L636.31,288.84L648.52,288.84L648.55,292.17Z" style="fill:rgb(38,38,38);fill-rule:nonzero;"/>
                <path d="M670.67,306.8L670.67,275.62L675.16,275.62L685.21,291.38C687.312,294.628 689.19,298.016 690.83,301.52L690.96,301.52C690.58,297.36 690.49,293.52 690.49,288.76L690.49,275.62L694.33,275.62L694.33,306.8L690.21,306.8L680.21,290.97C678.027,287.638 676.069,284.163 674.35,280.57L674.22,280.57C674.45,284.5 674.5,288.26 674.5,293.42L674.5,306.8L670.67,306.8Z" style="fill:rgb(38,38,38);fill-rule:nonzero;"/>
                <path d="M748.48,292.17L736.26,292.17L736.26,303.41L749.92,303.41L749.92,306.8L732.16,306.8L732.16,275.62L749.22,275.62L749.22,279L736.22,279L736.22,288.84L748.44,288.84L748.48,292.17Z" style="fill:rgb(38,38,38);fill-rule:nonzero;"/>
                <path d="M770.56,276C773.431,275.574 776.328,275.353 779.23,275.34C785.1,275.34 789.23,276.65 792.01,279.19C794.79,281.73 796.5,285.39 796.5,290.44C796.5,295.49 794.86,299.68 791.97,302.54C789.08,305.4 784.11,307.03 777.97,307.03C775.488,307.072 773.006,306.952 770.54,306.67L770.56,276ZM774.66,303.6C776.026,303.771 777.404,303.835 778.78,303.79C787.47,303.85 792.2,298.98 792.2,290.56C792.2,283.12 788.04,278.56 779.44,278.56C777.837,278.529 776.235,278.667 774.66,278.97L774.66,303.6Z" style="fill:rgb(38,38,38);fill-rule:nonzero;"/>
                <path d="M821.19,275.62L821.19,294.11C821.19,301.05 824.33,304.01 828.54,304.01C833.17,304.01 836.2,301.01 836.2,294.11L836.2,275.62L840.31,275.62L840.31,293.85C840.31,303.41 835.22,307.3 828.38,307.3C821.94,307.3 817.09,303.69 817.09,293.98L817.09,275.62L821.19,275.62Z" style="fill:rgb(38,38,38);fill-rule:nonzero;"/>
                <path d="M884.73,305.8C882.1,306.891 879.266,307.403 876.42,307.3C867.54,307.3 860.89,301.75 860.89,291.48C860.89,281.67 867.57,275.11 877.35,275.11C879.919,275.011 882.478,275.486 884.84,276.5L883.84,279.79C881.861,278.887 879.704,278.443 877.53,278.49C870.12,278.49 865.24,283.15 865.24,291.34C865.24,299.01 869.67,303.88 877.24,303.88C879.543,303.909 881.827,303.463 883.95,302.57L884.73,305.8Z" style="fill:rgb(38,38,38);fill-rule:nonzero;"/>
                <path d="M910.36,297L907.11,306.83L902.88,306.83L913.61,275.65L918.51,275.65L929.25,306.83L924.9,306.83L921.54,297L910.36,297ZM920.69,293.88L917.57,284.88C916.91,282.88 916.44,280.99 915.98,279.18L915.84,279.18C915.4,280.99 914.9,282.93 914.3,284.83L911.2,293.83L920.69,293.88Z" style="fill:rgb(38,38,38);fill-rule:nonzero;"/>
                <path d="M971.25,305.8C968.615,306.887 965.778,307.399 962.93,307.3C954.04,307.3 947.41,301.75 947.41,291.48C947.41,281.67 954.1,275.11 963.87,275.11C966.432,275.014 968.984,275.489 971.34,276.5L970.34,279.79C968.363,278.883 966.205,278.438 964.03,278.49C956.65,278.49 951.74,283.15 951.74,291.34C951.74,299.01 956.18,303.88 963.81,303.88C966.103,303.909 968.378,303.463 970.49,302.57L971.25,305.8Z" style="fill:rgb(38,38,38);fill-rule:nonzero;"/>
                <rect x="991.74" y="275.62" width="4.11" height="31.18" style="fill:rgb(38,38,38);fill-rule:nonzero;"/>
                <path d="M1030.64,307.3C1022.26,307.3 1016.46,300.92 1016.46,291.48C1016.46,281.6 1022.66,275.11 1031.06,275.11C1039.7,275.11 1045.26,281.62 1045.26,290.88C1045.26,301.56 1038.69,307.3 1030.7,307.3L1030.64,307.3ZM1030.84,304.01C1037.28,304.01 1040.94,298.14 1040.94,291.07C1040.94,284.87 1037.65,278.38 1030.87,278.38C1024.09,278.38 1020.73,284.63 1020.73,291.38C1020.73,297.95 1024.39,304.01 1030.73,304.01L1030.84,304.01ZM1038.27,268.51L1032.27,273.95L1028.96,273.95L1033.36,268.51L1038.27,268.51Z" style="fill:rgb(38,38,38);fill-rule:nonzero;"/>
                <path d="M1066,306.8L1066,275.62L1070.49,275.62L1080.49,291.38C1082.6,294.623 1084.48,298.012 1086.11,301.52L1086.24,301.52C1085.87,297.36 1085.77,293.52 1085.77,288.76L1085.77,275.62L1089.6,275.62L1089.6,306.8L1085.49,306.8L1075.49,290.97C1073.31,287.638 1071.36,284.163 1069.65,280.57L1069.49,280.57C1069.74,284.5 1069.78,288.26 1069.78,293.42L1069.78,306.8L1066,306.8Z" style="fill:rgb(38,38,38);fill-rule:nonzero;"/>
                <path d="M1124.4,160.31C1133.26,160.326 1140.54,167.621 1140.54,176.48C1140.54,185.351 1133.24,192.65 1124.37,192.65C1115.5,192.65 1108.2,185.351 1108.2,176.48C1108.2,167.621 1115.48,160.326 1124.34,160.31L1124.4,160.31ZM1124.34,162.83C1117.2,162.83 1111.34,168.98 1111.34,176.57C1111.34,184.16 1117.21,190.36 1124.41,190.36C1131.61,190.36 1137.41,184.3 1137.41,176.65C1137.41,169 1131.61,162.83 1124.41,162.83L1124.34,162.83ZM1121.34,186.03L1118.46,186.03L1118.46,167.9C1120.16,167.625 1121.88,167.481 1123.6,167.47C1126.34,167.47 1128.13,168.04 1129.22,168.85C1130.37,169.739 1131,171.15 1130.89,172.6C1130.89,174.711 1129.41,176.556 1127.35,177.01L1127.35,177.15C1128.94,177.43 1130.01,178.9 1130.35,181.55C1130.51,183.095 1130.9,184.606 1131.52,186.03L1128.52,186.03C1127.83,184.581 1127.42,183.019 1127.29,181.42C1126.86,179.1 1125.7,178.24 1123.4,178.24L1121.4,178.24L1121.34,186.03ZM1121.34,176.03L1123.45,176.03C1125.84,176.03 1127.85,175.18 1127.85,172.94C1127.85,171.34 1126.69,169.75 1123.45,169.75C1122.74,169.751 1122.04,169.798 1121.34,169.89L1121.34,176.03Z" style="fill:rgb(38,38,38);fill-rule:nonzero;"/>
                <g transform="matrix(1,0,0,1,4.35151,3.865)">
                    <path d="M374.36,189.95L340.09,224.23L324.52,208.65L358.85,174.39L345.97,161.51L385.16,163.52L386.99,202.58L374.36,189.95Z" style="fill:white;fill-rule:nonzero;"/>
                </g>
            </g>
            <g>
                <g transform="matrix(2.68556,0,0,2.20184,-15712.2,-10414.3)">
                    <path d="M6428,3196.03C6428,3166.25 6408.17,3142.06 6383.75,3142.06L5930.25,3142.06C5905.83,3142.06 5886,3166.25 5886,3196.03C5886,3225.82 5905.83,3250 5930.25,3250L6383.75,3250C6408.17,3250 6428,3225.82 6428,3196.03Z" style="fill:rgb(225,56,40);"/>
                </g>
                <g transform="matrix(3.25108,0,0,3.25108,-18792.3,-13752.4)">
                    <path d="M5850.16,3204.56L5854.95,3204.56L5854.95,3194.54C5855.62,3194.7 5856.4,3194.74 5857.31,3194.74C5860.72,3194.74 5863.71,3193.8 5865.67,3191.87C5867.12,3190.46 5867.91,3188.42 5867.91,3185.9C5867.91,3183.43 5866.89,3181.35 5865.32,3180.05C5863.63,3178.64 5861.07,3177.89 5857.54,3177.89C5854.32,3177.89 5851.93,3178.13 5850.16,3178.44L5850.16,3204.56ZM5854.95,3181.86C5855.46,3181.74 5856.4,3181.62 5857.74,3181.62C5861.07,3181.62 5863.12,3183.16 5863.12,3186.1C5863.12,3189.16 5860.92,3190.97 5857.31,3190.97C5856.32,3190.97 5855.58,3190.93 5854.95,3190.73L5854.95,3181.86Z" style="fill:rgb(236,241,246);fill-rule:nonzero;"/>
                    <path d="M5883.23,3204.56L5898.94,3204.56L5898.94,3200.51L5888.06,3200.51L5888.06,3178.09L5883.23,3178.09L5883.23,3204.56Z" style="fill:rgb(236,241,246);fill-rule:nonzero;"/>
                    <path d="M5927.38,3197.06L5929.77,3204.56L5934.99,3204.56L5926.39,3178.09L5920.23,3178.09L5911.75,3204.56L5916.73,3204.56L5919.01,3197.06L5927.38,3197.06ZM5919.8,3193.41L5921.84,3186.89C5922.27,3185.32 5922.7,3183.47 5923.1,3181.94L5923.17,3181.94C5923.57,3183.47 5924,3185.28 5924.51,3186.89L5926.59,3193.41L5919.8,3193.41Z" style="fill:rgb(236,241,246);fill-rule:nonzero;"/>
                    <path d="M5954.87,3204.56L5959.7,3204.56L5959.7,3182.13L5967.32,3182.13L5967.32,3178.09L5947.33,3178.09L5947.33,3182.13L5954.87,3182.13L5954.87,3204.56Z" style="fill:rgb(236,241,246);fill-rule:nonzero;"/>
                    <path d="M5995.21,3197.06L5997.6,3204.56L6002.83,3204.56L5994.23,3178.09L5988.06,3178.09L5979.58,3204.56L5984.57,3204.56L5986.84,3197.06L5995.21,3197.06ZM5987.63,3193.41L5989.67,3186.89C5990.1,3185.32 5990.53,3183.47 5990.93,3181.94L5991.01,3181.94C5991.4,3183.47 5991.83,3185.28 5992.34,3186.89L5994.42,3193.41L5987.63,3193.41Z" style="fill:rgb(236,241,246);fill-rule:nonzero;"/>
                    <path d="M6017.64,3204.56L6022.47,3204.56L6022.47,3193.29L6032.21,3193.29L6032.21,3189.36L6022.47,3189.36L6022.47,3182.06L6032.95,3182.06L6032.95,3178.09L6017.64,3178.09L6017.64,3204.56Z" style="fill:rgb(236,241,246);fill-rule:nonzero;"/>
                    <path d="M6059.98,3177.62C6052.52,3177.62 6047.37,3183.35 6047.37,3191.52C6047.37,3199.26 6052.08,3204.99 6059.58,3204.99C6066.85,3204.99 6072.23,3199.92 6072.23,3191.05C6072.23,3183.47 6067.67,3177.62 6059.98,3177.62ZM6059.82,3181.51C6064.65,3181.51 6067.12,3186.22 6067.12,3191.2C6067.12,3196.74 6064.49,3201.1 6059.82,3201.1C6055.19,3201.1 6052.48,3196.82 6052.48,3191.4C6052.48,3185.94 6055.03,3181.51 6059.82,3181.51Z" style="fill:rgb(236,241,246);fill-rule:nonzero;"/>
                    <path d="M6087.51,3204.56L6092.3,3204.56L6092.3,3193.68L6094.74,3193.68C6097.48,3193.76 6098.7,3194.86 6099.49,3198.31C6100.19,3201.61 6100.86,3203.77 6101.26,3204.56L6106.2,3204.56C6105.69,3203.54 6104.99,3200.47 6104.12,3197.17C6103.49,3194.62 6102.36,3192.78 6100.43,3192.07L6100.43,3191.95C6102.94,3191.09 6105.26,3188.77 6105.26,3185.35C6105.26,3183.08 6104.44,3181.23 6102.98,3180.01C6101.18,3178.52 6098.62,3177.89 6094.82,3177.89C6092.03,3177.89 6089.36,3178.13 6087.51,3178.48L6087.51,3204.56ZM6092.3,3181.78C6092.77,3181.66 6093.76,3181.55 6095.29,3181.55C6098.43,3181.55 6100.43,3182.92 6100.43,3185.79C6100.43,3188.42 6098.43,3190.14 6095.17,3190.14L6092.3,3190.14L6092.3,3181.78Z" style="fill:rgb(236,241,246);fill-rule:nonzero;"/>
                    <path d="M6143.83,3204.56L6148.54,3204.56L6147.01,3178.09L6140.73,3178.09L6137.08,3188.69C6136.06,3191.8 6135.15,3195.05 6134.44,3197.92L6134.33,3197.92C6133.66,3194.97 6132.84,3191.83 6131.89,3188.73L6128.44,3178.09L6122.07,3178.09L6120.31,3204.56L6124.82,3204.56L6125.41,3193.91C6125.61,3190.3 6125.77,3186.1 6125.88,3182.64L6125.96,3182.64C6126.67,3185.94 6127.61,3189.56 6128.63,3192.93L6132.17,3204.24L6135.86,3204.24L6139.75,3192.78C6140.92,3189.44 6142.02,3185.87 6142.89,3182.64L6143.01,3182.64C6142.97,3186.22 6143.16,3190.34 6143.32,3193.76L6143.83,3204.56Z" style="fill:rgb(236,241,246);fill-rule:nonzero;"/>
                    <path d="M6178.24,3197.06L6180.63,3204.56L6185.86,3204.56L6177.26,3178.09L6171.09,3178.09L6162.61,3204.56L6167.6,3204.56L6169.87,3197.06L6178.24,3197.06ZM6170.66,3193.41L6172.7,3186.89C6173.13,3185.32 6173.56,3183.47 6173.96,3181.94L6174.03,3181.94C6174.43,3183.47 6174.86,3185.28 6175.37,3186.89L6177.45,3193.41L6170.66,3193.41Z" style="fill:rgb(236,241,246);fill-rule:nonzero;"/>
                    <path d="M6199.49,3203.3C6200.94,3204.2 6203.85,3204.99 6206.67,3204.99C6213.47,3204.99 6216.69,3201.3 6216.69,3197.02C6216.69,3193.21 6214.49,3190.89 6209.9,3189.16C6206.36,3187.79 6204.83,3186.85 6204.83,3184.81C6204.83,3183.23 6206.12,3181.62 6209.19,3181.62C6211.66,3181.62 6213.51,3182.37 6214.49,3182.88L6215.63,3178.99C6214.25,3178.29 6212.17,3177.66 6209.31,3177.66C6203.53,3177.66 6199.92,3180.92 6199.92,3185.28C6199.92,3189.09 6202.71,3191.4 6207.11,3192.97C6210.44,3194.19 6211.78,3195.37 6211.78,3197.37C6211.78,3199.53 6210.05,3200.98 6206.99,3200.98C6204.52,3200.98 6202.12,3200.2 6200.59,3199.3L6199.49,3203.3Z" style="fill:rgb(236,241,246);fill-rule:nonzero;"/>
                </g>
            </g>
        </g>
    </g>
</svg>
