<svg width="54" height="262" viewBox="0 0 54 262" fill="none" xmlns="http://www.w3.org/2000/svg">
<rect width="54" height="25" rx="4" fill="#234675"/>
<rect x="3" y="4" width="9" height="17" rx="4" fill="white" fill-opacity="0.1"/>
<rect x="29" y="4" width="9" height="17" rx="4" fill="#343434" fill-opacity="0.1"/>
<rect x="16" y="4" width="9" height="17" rx="4" fill="#BFBFBF" fill-opacity="0.1"/>
<rect x="42" y="4" width="9" height="17" rx="4" fill="black" fill-opacity="0.1"/>
<path d="M4 25H50V239C50 251.703 39.7025 262 27 262V262C14.2975 262 4 251.703 4 239V25Z" fill="#68BDC1"/>
<path d="M7 176H47V239C47 250.046 38.0457 259 27 259V259C15.9543 259 7 250.046 7 239V176Z" fill="#DC4443"/>
<rect x="7" y="164" width="40" height="12" fill="#AE7246"/>
<rect x="7" y="152" width="40" height="12" fill="#E8E8E9"/>
<path d="M47 25H7V63H47V25Z" fill="#A4D6E2"/>
<path d="M47 63H7V152H47V63Z" fill="#F5C563"/>
<path fill-rule="evenodd" clip-rule="evenodd" d="M21 25H4V239C4 249.627 11.207 258.57 21 261.21V25Z" fill="white" fill-opacity="0.1"/>
<rect x="10" y="29" width="6" height="115" rx="3" fill="white"/>
</svg>
