<svg width="132" height="285" viewBox="0 0 132 285" fill="none" xmlns="http://www.w3.org/2000/svg">
<path d="M128.902 281.7C128.402 282.7 127.102 283.3 126.002 282.9C124.102 282.3 122.502 280.9 121.702 279.1L116.902 267.7L124.302 264.6L129.102 276C129.902 277.8 129.802 279.9 128.902 281.7Z" fill="#1A1A1A" stroke="#808080" stroke-width="3" stroke-miterlimit="10"/>
<path d="M86.7024 210.5L108.302 261.1C109.602 264.1 112.202 266.3 115.302 267.2L118.302 274.1L128.202 269.9L125.302 263.1C126.802 260.3 126.902 257 125.602 254L103.902 203.1L86.7024 210.5Z" fill="#333333" stroke="#808080" stroke-width="3" stroke-miterlimit="10"/>
<path d="M114.302 236L102.302 241.4C96.8024 243.7 95.9024 238.8 93.6024 233.3L37.2024 101.3L59.0024 91.9999L115.302 224.1C117.702 229.6 119.802 233.7 114.302 236Z" fill="white" stroke="#808080" stroke-width="3" stroke-miterlimit="10"/>
<path d="M2.30239 13.3999L3.30239 8.09988C4.30239 2.89988 10.1024 0.399883 14.6024 3.09988L19.2024 5.89988C24.2024 8.89988 29.3024 16.0999 31.6024 21.4999L61.9024 92.6999C62.7024 94.5999 61.8024 96.7999 59.9024 97.5999L40.5024 105.9C38.6024 106.7 36.4024 105.8 35.6024 103.9L5.40239 32.2999C3.30239 27.0999 1.20239 18.8999 2.30239 13.3999Z" fill="#333333" stroke="#808080" stroke-width="3" stroke-miterlimit="10"/>
<path d="M50.8023 92.3999L43.5023 95.4999L11.1023 19.4999L12.2023 17.5999C13.0023 16.1999 14.6023 15.4999 16.2023 15.7999L18.5023 16.2999L50.8023 92.3999Z" fill="#1A1A1A" stroke="#808080" stroke-width="3" stroke-miterlimit="10"/>
</svg>
