<svg width="280" height="280" viewBox="0 0 280 280" fill="none" xmlns="http://www.w3.org/2000/svg">
<rect width="280" height="280" fill="white"/>
<rect width="280" height="280" fill="#2E2F30"/>
<g filter="url(#filter0_d_4_7)">
<path d="M76 89H203C204.105 89 205 89.8954 205 91V188.892C205 189.997 204.105 190.892 203 190.892H193.095C188.776 190.892 184.6 192.446 181.33 195.269L168.449 206.394C167.708 207.034 166.612 207.043 165.86 206.415L152.287 195.078C149.05 192.373 144.966 190.892 140.748 190.892H76C74.8954 190.892 74 189.997 74 188.892V91C74 89.8954 74.8954 89 76 89Z" stroke="white" stroke-width="16" stroke-linecap="round" stroke-linejoin="round"/>
<path d="M122 121V155" stroke="white" stroke-width="16" stroke-linecap="round" stroke-linejoin="round"/>
<path d="M157 121V155" stroke="white" stroke-width="16" stroke-linecap="round" stroke-linejoin="round"/>
</g>
<defs>
<filter id="filter0_d_4_7" x="66" y="81" width="147" height="149.88" filterUnits="userSpaceOnUse" color-interpolation-filters="sRGB">
<feFlood flood-opacity="0" result="BackgroundImageFix"/>
<feColorMatrix in="SourceAlpha" type="matrix" values="0 0 0 0 0 0 0 0 0 0 0 0 0 0 0 0 0 0 127 0" result="hardAlpha"/>
<feOffset dy="16"/>
<feComposite in2="hardAlpha" operator="out"/>
<feColorMatrix type="matrix" values="0 0 0 0 0 0 0 0 0 0 0 0 0 0 0 0 0 0 0.25 0"/>
<feBlend mode="normal" in2="BackgroundImageFix" result="effect1_dropShadow_4_7"/>
<feBlend mode="normal" in="SourceGraphic" in2="effect1_dropShadow_4_7" result="shape"/>
</filter>
</defs>
</svg>
