<svg width="138" height="265" viewBox="0 0 138 265" fill="none" xmlns="http://www.w3.org/2000/svg">
<path d="M90.2 66.3114L97.4 66.4114C97.4 66.4114 98.6 25.5114 97.8 12.6114L97.4 10.0114C97 7.6114 95.8 5.4114 93.9 3.8114C93.1 3.1114 92.2 2.6114 91.3 2.3114C88.9 1.6114 86.4 2.1114 83.5 3.6114L79.2 7.5114L4 76.2114L15.8 77.1114L80.6 17.5114L84.8 14.1114C85.4 13.6114 86.2 13.5114 87 13.7114C89.1 14.4114 90.4 16.4114 90.4 18.5114L90.2 66.3114Z" fill="#CCCCCC" stroke="#808080" stroke-width="3" stroke-miterlimit="10"/>
<path d="M103.8 77.6114H80.9C77.6 77.6114 74.9 74.9114 74.9 71.6114V70.9114C74.9 67.6114 75 65.5114 78.3 65.5114L92.4 64.2114H93.4L107.7 65.7114C109.9 66.6114 109.8 67.7114 109.8 71.0114V71.7114C109.8 74.9114 107.1 77.6114 103.8 77.6114Z" fill="#4D4D4D" stroke="#808080" stroke-width="3" stroke-miterlimit="10"/>
<path d="M111.8 73.7114H72.9999C72.5999 73.7114 72.2 74.1114 72.2 74.5114V76.0114C72.2 76.4114 72.5999 76.8114 72.9999 76.8114H74.3999L80.3999 88.7114L104.9 89.2114L110.9 76.9114H111.9C112.3 76.9114 112.7 76.5114 112.7 76.1114V74.6114C112.6 74.1114 112.3 73.7114 111.8 73.7114Z" fill="#999999" stroke="#808080" stroke-width="3" stroke-miterlimit="10"/>
<path d="M135.3 147.411C135.3 146.711 134.7 141.011 132.1 135.511C132.1 135.511 127.5 126.811 120.7 121.611C120.7 121.611 114.3 116.711 108.5 113.511L107.4 112.411C106.5 111.311 106.2 108.211 106.3 106.811L107.4 85.1114H109.4C110.1 85.1114 110.6 84.6114 110.6 83.9114V80.6114C110.6 79.9114 110.1 79.4114 109.4 79.4114H75.5C74.8 79.4114 74.3 79.9114 74.3 80.6114V83.9114C74.3 84.6114 74.8 85.1114 75.5 85.1114H77.2L78.8 106.811C78.9 108.211 78.6 111.311 77.7 112.411L76.6 113.511C70.8 116.711 64.4 121.611 64.4 121.611C57.5 126.811 53 135.511 53 135.511C50.4 141.111 49.8 146.711 49.8 147.411C49.8 147.411 48.7 253.811 50.5 256.711C52.9 260.611 57.3 263.011 61.8 262.811C61.9 262.811 62.1 262.811 62.2 262.811H122.9C123 262.811 123.2 262.811 123.3 262.811C127.9 262.911 132.2 260.611 134.6 256.711C136.4 253.911 135.3 147.411 135.3 147.411Z" fill="white" stroke="#808080" stroke-width="3" stroke-miterlimit="10"/>
<path fill-rule="evenodd" clip-rule="evenodd" d="M132.361 192.166H52.7387C52.6281 220.013 52.7027 252.881 53.6552 254.416C55.8751 258.023 59.945 260.243 64.1073 260.058H64.4773H120.623H120.993C125.247 260.15 129.225 258.023 131.445 254.416C132.398 252.934 132.472 220.036 132.361 192.166Z" fill="#DCE7E8"/>
</svg>
