<svg width="39" height="207" viewBox="0 0 39 207" fill="none" xmlns="http://www.w3.org/2000/svg">
<path d="M34.8223 15.9855H3.44639C2.69712 15.9855 2.0415 16.9221 2.0415 18.046V20.1065C2.0415 21.2304 2.69712 22.167 3.44639 22.167H4.66397V183.448C4.66397 191.129 7.38009 198.34 11.9694 202.368C16.465 206.395 22.0846 206.395 26.4866 202.368C30.9822 198.34 33.792 191.129 33.792 183.448V22.167H34.8223C35.5716 22.167 36.2272 21.2304 36.2272 20.1065V18.046C36.2272 16.9221 35.5716 15.9855 34.8223 15.9855Z" fill="white" stroke="#808080" stroke-width="3" stroke-miterlimit="10"/>
<rect x="7.80151" y="148.386" width="5.81462" height="40.4264" transform="rotate(-6.20633 7.80151 148.386)" fill="#8F8269"/>
<rect width="2.32585" height="40.4264" transform="matrix(-0.994139 0.108109 0.108109 0.994139 13.5821 147.758)" fill="#ACA588"/>
<rect x="10.1137" y="148.135" width="1.16292" height="40.4264" transform="rotate(-6.20633 10.1137 148.135)" fill="#A18E6E"/>
<path fill-rule="evenodd" clip-rule="evenodd" d="M25.4664 121.605C27.0872 122.206 29.3432 121.341 30.6357 119.579C31.9945 117.726 31.7739 115.583 30.1428 114.791C28.5118 114 26.088 114.861 24.7292 116.714C23.8827 117.868 23.6491 119.135 23.9877 120.117L13.8123 130.588C12.5821 131.854 11.7129 133.953 11.0537 135.883C10.7147 136.876 10.4152 137.876 10.1478 138.774L10.1213 138.863C9.86187 139.734 9.63693 140.489 9.42943 141.072C9.02537 142.208 8.87735 143.66 8.83988 144.956C8.8019 146.27 8.87601 147.509 8.95769 148.261L11.2699 148.009C11.1955 147.325 11.1251 146.159 11.1608 144.924C11.197 143.671 11.3409 142.428 11.6536 141.55C11.8768 140.922 12.1133 140.128 12.3653 139.282L12.3653 139.282L12.4 139.165C12.6682 138.265 12.9587 137.295 13.2851 136.339C13.9569 134.373 14.7206 132.663 15.5945 131.764L25.4664 121.605Z" fill="#15191E"/>
<path fill-rule="evenodd" clip-rule="evenodd" d="M17.4077 80.7274C17.736 84.5243 17.51 88.1582 16.1319 91.2902L14.4173 90.5358C15.6149 87.8141 15.8572 84.5406 15.5415 80.8887C15.2261 77.2395 14.3634 73.3049 13.426 69.2917C13.3086 68.789 13.1899 68.2849 13.0711 67.7801C12.2475 64.2803 11.4159 60.7467 10.9236 57.3977C10.3607 53.5688 10.2232 49.8772 11.0922 46.6496L12.9009 47.1366C12.1309 49.9968 12.2275 53.3882 12.7768 57.1253C13.2566 60.389 14.0679 63.8371 14.8934 67.3459C15.0123 67.8514 15.1315 68.358 15.2501 68.8656C16.1859 72.872 17.0793 76.9277 17.4077 80.7274Z" fill="#E5E5E5"/>
<path fill-rule="evenodd" clip-rule="evenodd" d="M26.8633 86.3632C27.6326 91.3465 27.7488 96.1843 25.9873 100.188L24.2727 99.4334C25.8109 95.9376 25.7681 91.5466 25.0121 86.649C24.5143 83.4245 23.7295 80.0902 22.9378 76.7271C22.524 74.969 22.1083 73.203 21.7307 71.4406L23.5624 71.0483C23.9223 72.7287 24.3282 74.454 24.7374 76.1937C25.5398 79.6048 26.3552 83.0712 26.8633 86.3632Z" fill="#E5E5E5"/>
<path d="M25.5542 30.1281H11.5989C9.91307 30.1281 8.50818 28.8168 8.41452 27.0373L6.72865 4.27808C6.63499 2.49855 8.13354 1 9.91307 1H27.2401C29.0196 1 30.4245 2.49855 30.4245 4.27808L28.7386 27.131C28.6449 28.8168 27.2401 30.1281 25.5542 30.1281Z" fill="#4D4D4D" stroke="#666666" stroke-width="2" stroke-miterlimit="10"/>
<path d="M22.7942 99.11C24.1542 99.77 25.1642 100.55 25.8242 101.45C26.4842 102.33 26.8142 103.35 26.8142 104.51C26.8142 105.61 26.4942 106.62 25.8542 107.54C25.2342 108.44 24.3242 109.16 23.1242 109.7C21.9242 110.24 20.5142 110.51 18.8942 110.51C17.3142 110.51 15.9342 110.25 14.7542 109.73C13.5942 109.19 12.7042 108.48 12.0842 107.6C11.4642 106.7 11.1542 105.7 11.1542 104.6C11.1542 102.34 12.4142 100.66 14.9342 99.56C12.9542 98.4 11.9642 96.8 11.9642 94.76C11.9642 93.68 12.2642 92.73 12.8642 91.91C13.4642 91.09 14.2942 90.45 15.3542 89.99C16.4342 89.53 17.6542 89.3 19.0142 89.3C21.0742 89.3 22.7542 89.77 24.0542 90.71C25.3742 91.63 26.0342 92.9 26.0342 94.52C26.0342 95.42 25.7642 96.27 25.2242 97.07C24.7042 97.85 23.8942 98.53 22.7942 99.11ZM19.0442 92.51C18.2842 92.51 17.6742 92.71 17.2142 93.11C16.7742 93.51 16.5542 94.08 16.5542 94.82C16.5542 95.5 16.7442 96.06 17.1242 96.5C17.5242 96.92 18.1542 97.31 19.0142 97.67L19.6442 97.91C20.3242 97.47 20.7942 97.01 21.0542 96.53C21.3142 96.03 21.4442 95.44 21.4442 94.76C21.4442 94.08 21.2342 93.54 20.8142 93.14C20.4142 92.72 19.8242 92.51 19.0442 92.51ZM19.0442 107.12C20.0042 107.12 20.7442 106.88 21.2642 106.4C21.8042 105.9 22.0742 105.26 22.0742 104.48C22.0742 103.66 21.8442 103.02 21.3842 102.56C20.9242 102.08 20.1142 101.63 18.9542 101.21L17.9642 100.85C16.6042 101.61 15.9242 102.78 15.9242 104.36C15.9242 105.2 16.2042 105.87 16.7642 106.37C17.3242 106.87 18.0842 107.12 19.0442 107.12Z" fill="black"/>
</svg>
