<svg width="38" height="207" viewBox="0 0 38 207" fill="none" xmlns="http://www.w3.org/2000/svg">
<path d="M34.6122 15.9855H3.23628C2.48701 15.9855 1.83139 16.9221 1.83139 18.046V20.1065C1.83139 21.2304 2.48701 22.167 3.23628 22.167H4.45385V183.448C4.45385 191.129 7.16997 198.34 11.7593 202.368C16.2549 206.395 21.8745 206.395 26.2765 202.368C30.7721 198.34 33.5819 191.129 33.5819 183.448V22.167H34.6122C35.3614 22.167 36.0171 21.2304 36.0171 20.1065V18.046C36.0171 16.9221 35.3614 15.9855 34.6122 15.9855Z" fill="white" stroke="#808080" stroke-width="3" stroke-miterlimit="10"/>
<path d="M24.3097 198.902C21.0316 201.806 16.9106 201.806 13.6325 198.902C10.2608 195.999 8.29392 190.848 8.29392 185.322L8.29391 137.274H29.7419L29.7419 185.322C29.6483 190.941 27.5877 195.999 24.3097 198.902Z" fill="#AED6DB"/>
<rect x="8.38754" y="123.694" width="21.5417" height="14.0489" fill="#FFBB62"/>
<path d="M25.3441 30.1281H11.3888C9.70296 30.1281 8.29807 28.8168 8.20441 27.0373L6.51854 4.27808C6.42488 2.49855 7.92343 1 9.70296 1H27.0299C28.8095 1 30.2144 2.49855 30.2144 4.27808L28.5285 27.131C28.4348 28.8168 27.0299 30.1281 25.3441 30.1281Z" fill="#4D4D4D" stroke="#666666" stroke-width="2" stroke-miterlimit="10"/>
<path d="M25.9834 89.72V92.93L18.5434 110.48L14.2534 109.04L21.0634 93.29H12.8734V89.72H25.9834Z" fill="black"/>
</svg>
