<svg width="39" height="207" viewBox="0 0 39 207" fill="none" xmlns="http://www.w3.org/2000/svg">
<path d="M35.2752 15.9855H3.89934C3.15006 15.9855 2.49445 16.9221 2.49445 18.046V20.1065C2.49445 21.2304 3.15006 22.167 3.89934 22.167H5.11691V183.448C5.11691 191.129 7.83303 198.34 12.4223 202.368C16.918 206.395 22.5376 206.395 26.9395 202.368C31.4352 198.34 34.245 191.129 34.245 183.448V22.167H35.2752C36.0245 22.167 36.6801 21.2304 36.6801 20.1065V18.046C36.6801 16.9221 36.0245 15.9855 35.2752 15.9855Z" fill="white" stroke="#808080" stroke-width="3" stroke-miterlimit="10"/>
<path d="M24.9727 198.902C21.6946 201.806 17.5736 201.806 14.2956 198.902C10.9238 195.999 8.95697 190.848 8.95697 185.322V123.225H30.405L30.405 185.322C30.3113 190.941 28.2508 195.999 24.9727 198.902Z" fill="#B0CAC7"/>
<path d="M26.0071 30.1281H12.0519C10.366 30.1281 8.96112 28.8168 8.86746 27.0373L7.1816 4.27808C7.08794 2.49855 8.58649 1 10.366 1H27.693C29.4725 1 30.8774 2.49855 30.8774 4.27808L29.1915 27.131C29.0979 28.8168 27.693 30.1281 26.0071 30.1281Z" fill="#4D4D4D" stroke="#666666" stroke-width="2" stroke-miterlimit="10"/>
<path d="M21.3832 96.35C22.5032 96.35 23.5032 96.62 24.3832 97.16C25.2632 97.68 25.9532 98.45 26.4532 99.47C26.9532 100.47 27.2032 101.67 27.2032 103.07C27.2032 104.45 26.9032 105.71 26.3032 106.85C25.7032 107.97 24.8432 108.86 23.7232 109.52C22.6232 110.18 21.3332 110.51 19.8532 110.51C17.2532 110.51 15.3232 109.64 14.0632 107.9C12.8032 106.16 12.1732 103.77 12.1732 100.73C12.1732 98.45 12.5232 96.45 13.2232 94.73C13.9432 93.01 14.9632 91.68 16.2832 90.74C17.6232 89.78 19.1932 89.3 20.9932 89.3C22.7332 89.3 24.2732 89.75 25.6132 90.65L23.8732 93.47C22.9732 92.95 22.0532 92.69 21.1132 92.69C19.9732 92.69 19.0532 93.17 18.3532 94.13C17.6532 95.09 17.2332 96.45 17.0932 98.21C18.3132 96.97 19.7432 96.35 21.3832 96.35ZM19.9132 107.12C20.7532 107.12 21.3832 106.77 21.8032 106.07C22.2432 105.35 22.4632 104.37 22.4632 103.13C22.4632 101.87 22.2632 100.97 21.8632 100.43C21.4632 99.89 20.8632 99.62 20.0632 99.62C18.9832 99.62 17.9932 100.15 17.0932 101.21C17.1332 103.35 17.3632 104.87 17.7832 105.77C18.2032 106.67 18.9132 107.12 19.9132 107.12Z" fill="black"/>
</svg>
