<svg width="38" height="207" viewBox="0 0 38 207" fill="none" xmlns="http://www.w3.org/2000/svg">
<path d="M34.3079 15.9855H2.93205C2.18278 15.9855 1.52716 16.9221 1.52716 18.046V20.1065C1.52716 21.2304 2.18278 22.167 2.93205 22.167H4.14962V183.448C4.14962 191.129 6.86574 198.34 11.4551 202.368C15.9507 206.395 21.5703 206.395 25.9723 202.368C30.4679 198.34 33.2777 191.129 33.2777 183.448V22.167H34.3079C35.0572 22.167 35.7128 21.2304 35.7128 20.1065V18.046C35.7128 16.9221 35.0572 15.9855 34.3079 15.9855Z" fill="white" stroke="#808080" stroke-width="3" stroke-miterlimit="10"/>
<path d="M24.0054 198.902C20.7274 201.806 16.6063 201.806 13.3283 198.902C9.95653 195.999 7.98969 190.848 7.98969 185.322V123.225H29.4377L29.4377 185.322C29.344 190.941 27.2835 195.999 24.0054 198.902Z" fill="#D1D0CE"/>
<path d="M25.0398 30.1281H11.0846C9.39873 30.1281 7.99384 28.8168 7.90018 27.0373L6.21431 4.27808C6.12065 2.49855 7.6192 1 9.39873 1H26.7257C28.5052 1 29.9101 2.49855 29.9101 4.27808L28.2243 27.131C28.1306 28.8168 26.7257 30.1281 25.0398 30.1281Z" fill="#4D4D4D" stroke="#666666" stroke-width="2" stroke-miterlimit="10"/>
<path d="M17.391 89.3C18.851 89.3 20.101 89.56 21.141 90.08C22.201 90.6 23.001 91.3 23.541 92.18C24.101 93.06 24.381 94.03 24.381 95.09C24.381 96.17 24.161 97.2 23.721 98.18C23.281 99.16 22.501 100.29 21.381 101.57C20.261 102.83 18.631 104.43 16.491 106.37H24.801L24.321 110H11.121V106.64C13.581 104.22 15.371 102.4 16.491 101.18C17.611 99.94 18.391 98.91 18.831 98.09C19.291 97.27 19.521 96.43 19.521 95.57C19.521 94.75 19.281 94.11 18.801 93.65C18.341 93.17 17.711 92.93 16.911 92.93C16.191 92.93 15.551 93.1 14.991 93.44C14.431 93.76 13.841 94.29 13.221 95.03L10.431 92.81C11.271 91.71 12.271 90.85 13.431 90.23C14.611 89.61 15.931 89.3 17.391 89.3Z" fill="black"/>
</svg>
