<svg width="38" height="207" viewBox="0 0 38 207" fill="none" xmlns="http://www.w3.org/2000/svg">
<path d="M34.7282 15.9855H3.35228C2.603 15.9855 1.94739 16.9221 1.94739 18.046V20.1065C1.94739 21.2304 2.603 22.167 3.35228 22.167H4.56985V183.448C4.56985 191.129 7.28597 198.34 11.8753 202.368C16.3709 206.395 21.9905 206.395 26.3925 202.368C30.8881 198.34 33.6979 191.129 33.6979 183.448V22.167H34.7282C35.4774 22.167 36.1331 21.2304 36.1331 20.1065V18.046C36.1331 16.9221 35.4774 15.9855 34.7282 15.9855Z" fill="white" stroke="#808080" stroke-width="3" stroke-miterlimit="10"/>
<path d="M24.4257 198.902C21.1476 201.806 17.0266 201.806 13.7485 198.902C10.3768 195.999 8.40991 190.848 8.40991 185.322V123.225H29.8579L29.8579 185.322C29.7642 190.941 27.7037 195.999 24.4257 198.902Z" fill="#8ED1DA"/>
<path d="M25.4601 30.1281H11.5048C9.81896 30.1281 8.41407 28.8168 8.32041 27.0373L6.63454 4.27808C6.54088 2.49855 8.03943 1 9.81896 1H27.1459C28.9255 1 30.3304 2.49855 30.3304 4.27808L28.6445 27.131C28.5508 28.8168 27.1459 30.1281 25.4601 30.1281Z" fill="#4D4D4D" stroke="#666666" stroke-width="2" stroke-miterlimit="10"/>
<path d="M26.3386 102.08V105.62H24.0586V110H19.4386L19.4086 105.62H10.8586V102.47L16.6186 89.21L20.6386 90.71L15.7486 102.08H19.4686L19.9786 97.28H24.0586V102.08H26.3386Z" fill="black"/>
</svg>
