<svg width="512" height="512" viewBox="0 0 512 512" fill="none" xmlns="http://www.w3.org/2000/svg">
<g clip-path="url(#clip0_105_9)">
<path fill-rule="evenodd" clip-rule="evenodd" d="M255.957 0.0126953H255.802C115.442 0.116231 0 115.645 0 256.004C0 396.45 115.563 512.013 255.991 512.013C396.437 512.013 512 396.45 512 256.004V255.97C511.948 115.541 396.385 0.0126953 255.957 0.0126953V0.0126953ZM255.819 18.0796H255.957C386.48 18.0796 493.881 125.446 493.933 255.97V256.004C493.933 386.545 386.532 493.946 255.991 493.946C125.468 493.946 18.0669 386.545 18.0669 256.004C18.0669 125.549 125.347 18.1832 255.819 18.0796V18.0796Z" fill="white"/>
<path d="M255.788 9.02368C120.381 9.12722 9.01129 120.583 9.01129 255.99C9.01129 391.484 120.502 502.974 255.978 502.974C391.471 502.974 502.962 391.484 502.962 255.99C502.962 255.99 502.962 255.973 502.962 255.956C502.91 120.48 391.419 9.02368 255.943 9.02368C255.891 9.02368 255.84 9.02368 255.788 9.02368V9.02368Z" fill="#E13828"/>
<path d="M328.625 265.268L164.003 429.958L89.199 355.102L254.114 190.532L192.251 128.653L380.513 138.299L389.296 325.939L328.625 265.268Z" fill="white"/>
</g>
<defs>
<clipPath id="clip0_105_9">
<rect width="512" height="512" fill="white"/>
</clipPath>
</defs>
</svg>
