<svg width="38" height="207" viewBox="0 0 38 207" fill="none" xmlns="http://www.w3.org/2000/svg">
<path d="M34.5181 15.9855H3.1422C2.39292 15.9855 1.7373 16.9221 1.7373 18.046V20.1065C1.7373 21.2304 2.39292 22.167 3.1422 22.167H4.35977V183.448C4.35977 191.129 7.07589 198.34 11.6652 202.368C16.1608 206.395 21.7804 206.395 26.1824 202.368C30.678 198.34 33.4878 191.129 33.4878 183.448V22.167H34.5181C35.2674 22.167 35.923 21.2304 35.923 20.1065V18.046C35.923 16.9221 35.2674 15.9855 34.5181 15.9855Z" fill="white" stroke="#808080" stroke-width="3" stroke-miterlimit="10"/>
<path d="M24.2156 198.902C20.9375 201.806 16.8165 201.806 13.5384 198.902C10.1667 195.999 8.19983 190.848 8.19983 185.322V122.289H29.6478L29.6478 185.322C29.5542 190.941 27.4937 195.999 24.2156 198.902Z" fill="#A6D6DC"/>
<ellipse cx="24.6838" cy="186.914" rx="2.34148" ry="1.40489" transform="rotate(-180 24.6838 186.914)" fill="#5C85A3"/>
<ellipse cx="12.9764" cy="184.572" rx="1.87319" ry="0.936593" transform="rotate(-180 12.9764 184.572)" fill="#5C85A3"/>
<ellipse cx="27.0253" cy="183.636" rx="1.87319" ry="0.936593" transform="rotate(-180 27.0253 183.636)" fill="#5C85A3"/>
<ellipse cx="13.913" cy="192.533" rx="1.87319" ry="1.40489" transform="rotate(-180 13.913 192.533)" fill="#5C85A3"/>
<ellipse cx="23.7472" cy="191.597" rx="2.34148" ry="1.40489" transform="rotate(-180 23.7472 191.597)" fill="#5C85A3"/>
<ellipse cx="17.191" cy="188.319" rx="2.34148" ry="0.936593" transform="rotate(-180 17.191 188.319)" fill="#5C85A3"/>
<ellipse cx="19.5818" cy="180.759" rx="3.10555" ry="1.80629" transform="rotate(-180 19.5818 180.759)" fill="#5C85A3"/>
<path d="M25.25 30.1281H11.2947C9.60887 30.1281 8.20398 28.8168 8.11032 27.0373L6.42445 4.27808C6.33079 2.49855 7.82934 1 9.60887 1H26.9359C28.7154 1 30.1203 2.49855 30.1203 4.27808L28.4344 27.131C28.3407 28.8168 26.9359 30.1281 25.25 30.1281Z" fill="#4D4D4D" stroke="#666666" stroke-width="2" stroke-miterlimit="10"/>
<path d="M18.377 89.3C19.797 89.3 21.007 89.53 22.007 89.99C23.027 90.45 23.797 91.07 24.317 91.85C24.857 92.63 25.127 93.5 25.127 94.46C25.127 95.68 24.777 96.7 24.077 97.52C23.397 98.34 22.427 98.93 21.167 99.29C22.527 99.43 23.637 99.92 24.497 100.76C25.357 101.58 25.787 102.75 25.787 104.27C25.787 105.41 25.487 106.46 24.887 107.42C24.287 108.36 23.397 109.11 22.217 109.67C21.057 110.23 19.667 110.51 18.047 110.51C15.087 110.51 12.767 109.49 11.087 107.45L13.637 104.96C14.317 105.64 14.977 106.14 15.617 106.46C16.277 106.76 16.997 106.91 17.777 106.91C18.717 106.91 19.477 106.65 20.057 106.13C20.637 105.61 20.927 104.89 20.927 103.97C20.927 102.93 20.647 102.19 20.087 101.75C19.547 101.29 18.727 101.06 17.627 101.06H15.947L16.457 97.79H17.627C18.527 97.79 19.237 97.56 19.757 97.1C20.277 96.64 20.537 95.99 20.537 95.15C20.537 94.41 20.297 93.84 19.817 93.44C19.337 93.02 18.677 92.81 17.837 92.81C16.417 92.81 15.097 93.4 13.877 94.58L11.537 92.03C13.457 90.21 15.737 89.3 18.377 89.3Z" fill="black"/>
</svg>
