<svg width="38" height="207" viewBox="0 0 38 207" fill="none" xmlns="http://www.w3.org/2000/svg">
<path d="M35.0651 15.9855H3.68922C2.93995 15.9855 2.28433 16.9221 2.28433 18.046V20.1065C2.28433 21.2304 2.93995 22.167 3.68922 22.167H4.90679V183.448C4.90679 191.129 7.62292 198.34 12.2122 202.368C16.7079 206.395 22.3274 206.395 26.7294 202.368C31.2251 198.34 34.0349 191.129 34.0349 183.448V22.167H35.0651C35.8144 22.167 36.47 21.2304 36.47 20.1065V18.046C36.47 16.9221 35.8144 15.9855 35.0651 15.9855Z" fill="white" stroke="#808080" stroke-width="3" stroke-miterlimit="10"/>
<path d="M24.7626 198.902C21.4845 201.806 17.3635 201.806 14.0854 198.902C10.7137 195.999 8.74686 190.848 8.74686 185.322V122.757H30.1949L30.1948 185.322C30.1012 190.941 28.0407 195.999 24.7626 198.902Z" fill="#CFE3EA"/>
<path d="M25.797 30.1281H11.8417C10.1559 30.1281 8.75098 28.8168 8.65732 27.0373L6.97145 4.27808C6.87779 2.49855 8.37634 1 10.1559 1H27.4829C29.2624 1 30.6673 2.49855 30.6673 4.27808L28.9814 27.131C28.8877 28.8168 27.4829 30.1281 25.797 30.1281Z" fill="#4D4D4D" stroke="#666666" stroke-width="2" stroke-miterlimit="10"/>
<path d="M25.078 93.11H17.728V97.37C18.668 96.93 19.668 96.71 20.728 96.71C21.848 96.71 22.848 96.97 23.728 97.49C24.608 98.01 25.298 98.77 25.798 99.77C26.298 100.77 26.548 101.95 26.548 103.31C26.548 104.73 26.218 105.99 25.558 107.09C24.918 108.17 23.988 109.01 22.768 109.61C21.568 110.21 20.178 110.51 18.598 110.51C15.858 110.51 13.608 109.49 11.848 107.45L14.488 104.99C15.588 106.29 16.898 106.94 18.418 106.94C19.458 106.94 20.258 106.63 20.818 106.01C21.398 105.39 21.688 104.5 21.688 103.34C21.688 101.08 20.738 99.95 18.838 99.95C18.438 99.95 18.048 100.01 17.668 100.13C17.288 100.23 16.868 100.41 16.408 100.67H13.198V89.72H25.618L25.078 93.11Z" fill="black"/>
</svg>
