<svg width="217" height="169" viewBox="0 0 217 169" fill="none" xmlns="http://www.w3.org/2000/svg">
<g clip-path="url(#clip0_82_131)">
<path d="M215.3 134.9C215.3 134.9 198.2 71.6 169.7 47.2C164.3 42.6 157.7 38.9 150.2 36C151.2 33.8 151.2 31.2 149.9 28.8L130.4 1.8L112.6 8.2C109.7 9.2 106.6 9.2 103.8 8.1L87.3 1.8L67.2 28.7C65.8 31.1 65.9 33.8 66.9 36C59.4 38.9 52.7 42.6 47.3 47.3C18.7 71.6 1.70001 134.9 1.70001 134.9C1.70001 134.9 7.60001 141 19.8 147.1C19.8 147.4 19.8 147.6 19.8 147.9C19.8 158.2 28.1 166.5 38.4 166.5C44.9 166.5 50.7 163.1 54 158C82.4 163.6 108.5 163.4 108.5 163.4C108.5 163.4 134.7 163.7 163.2 158C166.5 163.1 172.3 166.5 178.8 166.5C189.1 166.5 197.4 158.2 197.4 147.9C197.4 147.6 197.4 147.3 197.4 147C209.5 140.9 215.3 134.9 215.3 134.9Z" fill="#333333" stroke="#666666" stroke-width="3" stroke-miterlimit="10"/>
<path d="M169.7 47.3C140.8 22.6 76.2 22.6 47.3 47.3C18.7 71.6 1.70001 134.9 1.70001 134.9C1.70001 134.9 15 148.6 43.1 155.6C75.4 163.7 108.5 163.4 108.5 163.4C108.5 163.4 141.6 163.7 173.9 155.6C202 148.6 215.3 134.9 215.3 134.9C215.3 134.9 198.2 71.6 169.7 47.3Z" fill="#373997"/>
<path d="M191 116.4H160.2V135.3H191V116.4Z" fill="#8CC63F" stroke="#666666" stroke-width="3" stroke-miterlimit="10"/>
<path d="M87.3 1.8L103.8 8.1C106.6 9.2 109.8 9.2 112.6 8.2L130.4 1.8L149.9 28.8C152.8 34.2 148.9 40.8 142.7 40.8L116 47.5C112.4 48.4 108.6 48.4 104.9 47.6L74.3 40.8C68 40.8 64.1 34.1 67.2 28.6L87.3 1.8Z" fill="#333333"/>
<path d="M108.2 117.7C117.644 117.7 125.3 110.044 125.3 100.6C125.3 91.1559 117.644 83.5 108.2 83.5C98.7559 83.5 91.1 91.1559 91.1 100.6C91.1 110.044 98.7559 117.7 108.2 117.7Z" fill="#999999" stroke="#666666" stroke-width="2" stroke-miterlimit="10"/>
<path d="M101.2 116.5L107 103" stroke="#666666" stroke-width="3" stroke-miterlimit="10"/>
</g>
<defs>
<clipPath id="clip0_82_131">
<rect width="217" height="168.1" fill="white"/>
</clipPath>
</defs>
</svg>
