<svg width="125" height="191" viewBox="0 0 125 191" fill="none" xmlns="http://www.w3.org/2000/svg">
<g clip-path="url(#clip0_76_69)">
<path d="M108 134.8H16.8C12.5 134.8 8.89999 131.3 8.89999 126.9V9.4C8.89999 5.1 12.4 1.5 16.8 1.5H108C112.3 1.5 115.9 5 115.9 9.4V127C115.9 131.3 112.3 134.8 108 134.8Z" fill="#E29856" stroke="#666666" stroke-width="3" stroke-miterlimit="10"/>
<path d="M31.6 25.5H25.6V151.3H31.6V25.5Z" fill="#C69C6D" stroke="#666666" stroke-width="2" stroke-miterlimit="10"/>
<path d="M38.4 14.2C38.4 14.1 38.4 13.9 38.4 13.8C38.4 13.7 38.4 13.6 38.4 13.5C38.4 13.4 38.4 13.3 38.4 13.3C38.4 13.1 38.4 13 38.3 12.8C38.3 12.8 38.3 12.8 38.3 12.7C38.1 11.3 37.6 10.1 36.9 8.90002C36.9 8.80002 36.8 8.80002 36.8 8.70002C36.2 7.90002 35.6 7.10002 34.7 6.50002C34.6 6.40002 34.4 6.30002 34.3 6.20002C34.2 6.20002 34.2 6.10002 34.1 6.10002C34 6.00002 33.8 5.90002 33.7 5.80002C33.6 5.70002 33.5 5.70002 33.4 5.60002C33.3 5.60002 33.3 5.50002 33.2 5.50002C33.1 5.40002 32.9 5.40002 32.8 5.30002C32.7 5.20002 32.6 5.20002 32.4 5.10002C32.3 5.10002 32.2 5.00002 32.2 5.00002C32 5.00002 31.9 5.00002 31.8 4.90002C31.7 4.80002 31.5 4.80002 31.3 4.80002H31.2C30.4 4.60002 29.5 4.40002 28.7 4.40002C28.5 4.40002 28.4 4.40002 28.2 4.40002C28 4.40002 27.9 4.40002 27.7 4.40002C27.1 4.50002 26.5 4.60002 25.9 4.70002C25.7 4.80002 25.5 4.80002 25.4 4.90002C25.3 5.00002 25.2 5.00002 25.2 5.00002C25.1 5.00002 25 5.10002 24.9 5.10002C24.8 5.20002 24.7 5.20002 24.5 5.30002C24.4 5.30002 24.4 5.40002 24.3 5.40002C24.2 5.50002 24 5.50002 23.9 5.60002C23.9 5.60002 23.9 5.60002 23.8 5.60002C23.7 5.70002 23.6 5.70002 23.5 5.80002C23.3 5.90002 23.3 6.00002 23.2 6.00002C23.1 6.00002 23.1 6.10002 23 6.10002C22.9 6.20002 22.7 6.30002 22.6 6.40002C21.5 7.30002 20.7 8.30002 20 9.50002C20 9.60002 19.9 9.60002 19.9 9.70002C19.9 9.70002 19.9 9.70002 19.9 9.80002C19.5 10.7 19.1 11.7 19 12.7C19 12.9 19 13.1 18.9 13.2C18.9 13.3 18.9 13.3 18.9 13.4C18.9 13.5 18.9 13.7 18.9 13.8C18.9 13.9 18.9 14 18.9 14.2C18.9 14.3 18.9 14.4 18.9 14.4C18.9 14.6 18.9 14.7 18.9 14.9C18.9 14.9 18.9 14.9 18.9 15C18.9 15.1 18.9 15.3 18.9 15.4C18.9 15.5 18.9 15.6 18.9 15.6C18.9 15.7 18.9 15.8 19 15.9C19 16.1 19.1 16.2 19.1 16.4V16.5C19.2 17 19.4 17.5 19.6 18.1L24.9 31.6C25.2 32.4 26.3 32.6 26.9 31.9C27.1 31.7 27.5 31.7 27.6 32C28 32.8 29.1 32.8 29.6 32L30.2 31C30.3 30.7 30.7 30.7 30.9 30.9L31.7 31.8C32.3 32.4 33.4 32.2 33.6 31.4L37.8 17.5C37.9 17.2 38 16.9 38.1 16.6C38.1 16.4 38.2 16.2 38.2 16C38.2 15.9 38.2 15.8 38.2 15.8C38.2 15.7 38.2 15.6 38.3 15.4C38.3 15.3 38.3 15.1 38.3 15C38.3 14.9 38.3 14.9 38.3 14.8C38.3 14.7 38.3 14.5 38.3 14.4C38.4 14.4 38.4 14.3 38.4 14.2C38.4 14.3 38.4 14.3 38.4 14.2C38.4 14.3 38.4 14.3 38.4 14.2Z" fill="#FF1515"/>
<path d="M38.4 14.2C38.4 14.1 38.4 13.9 38.4 13.8C38.4 13.7 38.4 13.6 38.4 13.5C38.4 13.4 38.4 13.3 38.4 13.3C38.4 13.1 38.4 13 38.3 12.8C38.3 12.8 38.3 12.8 38.3 12.7C38.1 11.3 37.6 10.1 36.9 8.90002C36.9 8.80002 36.8 8.80002 36.8 8.70002C36.2 7.90002 35.6 7.10002 34.7 6.50002C34.6 6.40002 34.4 6.30002 34.3 6.20002C34.2 6.20002 34.2 6.10002 34.1 6.10002C34 6.00002 33.8 5.90002 33.7 5.80002C33.6 5.70002 33.5 5.70002 33.4 5.60002C33.3 5.60002 33.3 5.50002 33.2 5.50002C33.1 5.40002 32.9 5.40002 32.8 5.30002C32.7 5.20002 32.6 5.20002 32.4 5.10002C32.3 5.10002 32.2 5.00002 32.2 5.00002C32 5.00002 31.9 5.00002 31.8 4.90002C31.7 4.80002 31.5 4.80002 31.3 4.80002H31.2C30.4 4.60002 29.5 4.40002 28.7 4.40002C28.5 4.40002 28.4 4.40002 28.2 4.40002C28 4.40002 27.9 4.40002 27.7 4.40002C27.1 4.50002 26.5 4.60002 25.9 4.70002C25.7 4.80002 25.5 4.80002 25.4 4.90002C25.3 5.00002 25.2 5.00002 25.2 5.00002C25.1 5.00002 25 5.10002 24.9 5.10002C24.8 5.20002 24.7 5.20002 24.5 5.30002C24.4 5.30002 24.4 5.40002 24.3 5.40002C24.2 5.50002 24 5.50002 23.9 5.60002C23.9 5.60002 23.9 5.60002 23.8 5.60002C23.7 5.70002 23.6 5.70002 23.5 5.80002C23.3 5.90002 23.3 6.00002 23.2 6.00002C23.1 6.00002 23.1 6.10002 23 6.10002C22.9 6.20002 22.7 6.30002 22.6 6.40002C21.5 7.30002 20.7 8.30002 20 9.50002C20 9.60002 19.9 9.60002 19.9 9.70002C19.9 9.70002 19.9 9.70002 19.9 9.80002C19.5 10.7 19.1 11.7 19 12.7C19 12.9 19 13.1 18.9 13.2C18.9 13.3 18.9 13.3 18.9 13.4C18.9 13.5 18.9 13.7 18.9 13.8C18.9 13.9 18.9 14 18.9 14.2C18.9 14.3 18.9 14.4 18.9 14.4C18.9 14.6 18.9 14.7 18.9 14.9C18.9 14.9 18.9 14.9 18.9 15C18.9 15.1 18.9 15.3 18.9 15.4C18.9 15.5 18.9 15.6 18.9 15.6C18.9 15.7 18.9 15.8 19 15.9C19 16.1 19.1 16.2 19.1 16.4V16.5C19.2 17 19.4 17.5 19.6 18.1L24.9 31.6C25.2 32.4 26.3 32.6 26.9 31.9C27.1 31.7 27.5 31.7 27.6 32C28 32.8 29.1 32.8 29.6 32L30.2 31C30.3 30.7 30.7 30.7 30.9 30.9L31.7 31.8C32.3 32.4 33.4 32.2 33.6 31.4L37.8 17.5C37.9 17.2 38 16.9 38.1 16.6C38.1 16.4 38.2 16.2 38.2 16C38.2 15.9 38.2 15.8 38.2 15.8C38.2 15.7 38.2 15.6 38.3 15.4C38.3 15.3 38.3 15.1 38.3 15C38.3 14.9 38.3 14.9 38.3 14.8C38.3 14.7 38.3 14.5 38.3 14.4C38.4 14.4 38.4 14.3 38.4 14.2ZM38.4 14.2C38.4 14.3 38.4 14.3 38.4 14.2ZM38.4 14.2C38.4 14.3 38.4 14.3 38.4 14.2Z" stroke="#666666" stroke-width="2" stroke-miterlimit="10"/>
<path d="M53.6 25.5H47.6V151.3H53.6V25.5Z" fill="#C69C6D" stroke="#666666" stroke-width="2" stroke-miterlimit="10"/>
<path d="M60.4 14.2C60.4 14.1 60.4 13.9 60.4 13.8C60.4 13.7 60.4 13.6 60.4 13.5C60.4 13.4 60.4 13.3 60.4 13.3C60.4 13.1 60.4 13 60.3 12.8C60.3 12.8 60.3 12.8 60.3 12.7C60.1 11.3 59.6 10.1 58.9 8.90002C58.9 8.80002 58.8 8.80002 58.8 8.70002C58.2 7.90002 57.6 7.10002 56.7 6.50002C56.6 6.40002 56.4 6.30002 56.3 6.20002C56.2 6.20002 56.2 6.10002 56.1 6.10002C56 6.00002 55.8 5.90002 55.7 5.80002C55.6 5.70002 55.5 5.70002 55.4 5.60002C55.3 5.60002 55.3 5.50002 55.2 5.50002C55.1 5.40002 54.9 5.40002 54.8 5.30002C54.7 5.20002 54.6 5.20002 54.4 5.10002C54.3 5.10002 54.2 5.00002 54.2 5.00002C54 5.00002 53.9 5.00002 53.8 4.90002C53.7 4.80002 53.5 4.80002 53.3 4.80002H53.2C52.4 4.60002 51.5 4.40002 50.7 4.40002C50.5 4.40002 50.4 4.40002 50.2 4.40002C50 4.40002 49.9 4.40002 49.7 4.40002C49.1 4.50002 48.5 4.60002 47.9 4.70002C47.7 4.80002 47.5 4.80002 47.4 4.90002C47.3 5.00002 47.2 5.00002 47.2 5.00002C47.1 5.00002 47 5.10002 46.9 5.10002C46.8 5.20002 46.7 5.20002 46.5 5.30002C46.4 5.30002 46.4 5.40002 46.3 5.40002C46.2 5.50002 46 5.50002 45.9 5.60002C45.9 5.60002 45.9 5.60002 45.8 5.60002C45.7 5.70002 45.6 5.70002 45.5 5.80002C45.3 5.90002 45.3 6.00002 45.2 6.00002C45.1 6.00002 45.1 6.10002 45 6.10002C44.9 6.20002 44.7 6.30002 44.6 6.40002C43.5 7.30002 42.7 8.30002 42 9.50002C42 9.60002 41.9 9.60002 41.9 9.70002C41.9 9.70002 41.9 9.70002 41.9 9.80002C41.5 10.7 41.1 11.7 41 12.7C41 12.9 41 13.1 40.9 13.2C40.9 13.3 40.9 13.3 40.9 13.4C40.9 13.5 40.9 13.7 40.9 13.8C40.9 13.9 40.9 14 40.9 14.2C40.9 14.3 40.9 14.4 40.9 14.4C40.9 14.6 40.9 14.7 40.9 14.9C40.9 14.9 40.9 14.9 40.9 15C40.9 15.1 40.9 15.3 40.9 15.4C40.9 15.5 40.9 15.6 40.9 15.6C40.9 15.7 40.9 15.8 41 15.9C41 16.1 41.1 16.2 41.1 16.4V16.5C41.2 17 41.4 17.5 41.6 18.1L46.9 31.6C47.2 32.4 48.3 32.6 48.9 31.9C49.1 31.7 49.5 31.7 49.6 32C50 32.8 51.1 32.8 51.6 32L52.2 31C52.3 30.7 52.7 30.7 52.9 30.9L53.7 31.8C54.3 32.4 55.4 32.2 55.6 31.4L59.8 17.5C59.9 17.2 60 16.9 60.1 16.6C60.1 16.4 60.2 16.2 60.2 16C60.2 15.9 60.2 15.8 60.2 15.8C60.2 15.7 60.2 15.6 60.3 15.4C60.3 15.3 60.3 15.1 60.3 15C60.3 14.9 60.3 14.9 60.3 14.8C60.3 14.7 60.3 14.5 60.3 14.4C60.4 14.4 60.4 14.3 60.4 14.2C60.4 14.3 60.4 14.3 60.4 14.2C60.4 14.3 60.4 14.3 60.4 14.2Z" fill="#FF1515"/>
<path d="M60.4 14.2C60.4 14.1 60.4 13.9 60.4 13.8C60.4 13.7 60.4 13.6 60.4 13.5C60.4 13.4 60.4 13.3 60.4 13.3C60.4 13.1 60.4 13 60.3 12.8C60.3 12.8 60.3 12.8 60.3 12.7C60.1 11.3 59.6 10.1 58.9 8.90002C58.9 8.80002 58.8 8.80002 58.8 8.70002C58.2 7.90002 57.6 7.10002 56.7 6.50002C56.6 6.40002 56.4 6.30002 56.3 6.20002C56.2 6.20002 56.2 6.10002 56.1 6.10002C56 6.00002 55.8 5.90002 55.7 5.80002C55.6 5.70002 55.5 5.70002 55.4 5.60002C55.3 5.60002 55.3 5.50002 55.2 5.50002C55.1 5.40002 54.9 5.40002 54.8 5.30002C54.7 5.20002 54.6 5.20002 54.4 5.10002C54.3 5.10002 54.2 5.00002 54.2 5.00002C54 5.00002 53.9 5.00002 53.8 4.90002C53.7 4.80002 53.5 4.80002 53.3 4.80002H53.2C52.4 4.60002 51.5 4.40002 50.7 4.40002C50.5 4.40002 50.4 4.40002 50.2 4.40002C50 4.40002 49.9 4.40002 49.7 4.40002C49.1 4.50002 48.5 4.60002 47.9 4.70002C47.7 4.80002 47.5 4.80002 47.4 4.90002C47.3 5.00002 47.2 5.00002 47.2 5.00002C47.1 5.00002 47 5.10002 46.9 5.10002C46.8 5.20002 46.7 5.20002 46.5 5.30002C46.4 5.30002 46.4 5.40002 46.3 5.40002C46.2 5.50002 46 5.50002 45.9 5.60002C45.9 5.60002 45.9 5.60002 45.8 5.60002C45.7 5.70002 45.6 5.70002 45.5 5.80002C45.3 5.90002 45.3 6.00002 45.2 6.00002C45.1 6.00002 45.1 6.10002 45 6.10002C44.9 6.20002 44.7 6.30002 44.6 6.40002C43.5 7.30002 42.7 8.30002 42 9.50002C42 9.60002 41.9 9.60002 41.9 9.70002C41.9 9.70002 41.9 9.70002 41.9 9.80002C41.5 10.7 41.1 11.7 41 12.7C41 12.9 41 13.1 40.9 13.2C40.9 13.3 40.9 13.3 40.9 13.4C40.9 13.5 40.9 13.7 40.9 13.8C40.9 13.9 40.9 14 40.9 14.2C40.9 14.3 40.9 14.4 40.9 14.4C40.9 14.6 40.9 14.7 40.9 14.9C40.9 14.9 40.9 14.9 40.9 15C40.9 15.1 40.9 15.3 40.9 15.4C40.9 15.5 40.9 15.6 40.9 15.6C40.9 15.7 40.9 15.8 41 15.9C41 16.1 41.1 16.2 41.1 16.4V16.5C41.2 17 41.4 17.5 41.6 18.1L46.9 31.6C47.2 32.4 48.3 32.6 48.9 31.9C49.1 31.7 49.5 31.7 49.6 32C50 32.8 51.1 32.8 51.6 32L52.2 31C52.3 30.7 52.7 30.7 52.9 30.9L53.7 31.8C54.3 32.4 55.4 32.2 55.6 31.4L59.8 17.5C59.9 17.2 60 16.9 60.1 16.6C60.1 16.4 60.2 16.2 60.2 16C60.2 15.9 60.2 15.8 60.2 15.8C60.2 15.7 60.2 15.6 60.3 15.4C60.3 15.3 60.3 15.1 60.3 15C60.3 14.9 60.3 14.9 60.3 14.8C60.3 14.7 60.3 14.5 60.3 14.4C60.4 14.4 60.4 14.3 60.4 14.2ZM60.4 14.2C60.4 14.3 60.4 14.3 60.4 14.2ZM60.4 14.2C60.4 14.3 60.4 14.3 60.4 14.2Z" stroke="#666666" stroke-width="2" stroke-miterlimit="10"/>
<path d="M75.6 25.5H69.6V151.3H75.6V25.5Z" fill="#C69C6D" stroke="#666666" stroke-width="2" stroke-miterlimit="10"/>
<path d="M82.4 14.2C82.4 14.1 82.4 13.9 82.4 13.8C82.4 13.7 82.4 13.6 82.4 13.5C82.4 13.4 82.4 13.3 82.4 13.3C82.4 13.1 82.4 13 82.3 12.8C82.3 12.8 82.3 12.8 82.3 12.7C82.1 11.3 81.6 10.1 80.9 8.90002C80.9 8.80002 80.8 8.80002 80.8 8.70002C80.2 7.90002 79.6 7.10002 78.7 6.50002C78.6 6.40002 78.4 6.30002 78.3 6.20002C78.2 6.20002 78.2 6.10002 78.1 6.10002C78 6.00002 77.8 5.90002 77.7 5.80002C77.6 5.70002 77.5 5.70002 77.4 5.60002C77.3 5.60002 77.3 5.50002 77.2 5.50002C77.1 5.40002 76.9 5.40002 76.8 5.30002C76.7 5.20002 76.6 5.20002 76.4 5.10002C76.3 5.10002 76.2 5.00002 76.2 5.00002C76 5.00002 75.9 5.00002 75.8 4.90002C75.7 4.80002 75.5 4.80002 75.3 4.80002H75.2C74.4 4.60002 73.5 4.40002 72.7 4.40002C72.5 4.40002 72.4 4.40002 72.2 4.40002C72 4.40002 71.9 4.40002 71.7 4.40002C71.1 4.50002 70.5 4.60002 69.9 4.70002C69.7 4.80002 69.5 4.80002 69.4 4.90002C69.3 5.00002 69.2 5.00002 69.2 5.00002C69.1 5.00002 69 5.10002 68.9 5.10002C68.8 5.20002 68.7 5.20002 68.5 5.30002C68.4 5.30002 68.4 5.40002 68.3 5.40002C68.2 5.50002 68 5.50002 67.9 5.60002C67.9 5.60002 67.9 5.60002 67.8 5.60002C67.7 5.70002 67.6 5.70002 67.5 5.80002C67.3 5.90002 67.3 6.00002 67.2 6.00002C67.1 6.00002 67.1 6.10002 67 6.10002C66.9 6.20002 66.7 6.30002 66.6 6.40002C65.5 7.30002 64.7 8.30002 64 9.50002C64 9.60002 63.9 9.60002 63.9 9.70002C63.9 9.70002 63.9 9.70002 63.9 9.80002C63.5 10.7 63.1 11.7 63 12.7C63 12.9 63 13.1 62.9 13.2C62.9 13.3 62.9 13.3 62.9 13.4C62.9 13.5 62.9 13.7 62.9 13.8C62.9 13.9 62.9 14 62.9 14.2C62.9 14.3 62.9 14.4 62.9 14.4C62.9 14.6 62.9 14.7 62.9 14.9C62.9 14.9 62.9 14.9 62.9 15C62.9 15.1 62.9 15.3 62.9 15.4C62.9 15.5 62.9 15.6 62.9 15.6C62.9 15.7 62.9 15.8 63 15.9C63 16.1 63.1 16.2 63.1 16.4V16.5C63.2 17 63.4 17.5 63.6 18.1L68.9 31.6C69.2 32.4 70.3 32.6 70.9 31.9C71.1 31.7 71.5 31.7 71.6 32C72 32.8 73.1 32.8 73.6 32L74.2 31C74.3 30.7 74.7 30.7 74.9 30.9L75.7 31.8C76.3 32.4 77.4 32.2 77.6 31.4L81.8 17.5C81.9 17.2 82 16.9 82.1 16.6C82.1 16.4 82.2 16.2 82.2 16C82.2 15.9 82.2 15.8 82.2 15.8C82.2 15.7 82.2 15.6 82.3 15.4C82.3 15.3 82.3 15.1 82.3 15C82.3 14.9 82.3 14.9 82.3 14.8C82.3 14.7 82.3 14.5 82.3 14.4C82.4 14.4 82.4 14.3 82.4 14.2C82.4 14.3 82.4 14.3 82.4 14.2C82.4 14.3 82.4 14.3 82.4 14.2Z" fill="#FF1515"/>
<path d="M82.4 14.2C82.4 14.1 82.4 13.9 82.4 13.8C82.4 13.7 82.4 13.6 82.4 13.5C82.4 13.4 82.4 13.3 82.4 13.3C82.4 13.1 82.4 13 82.3 12.8C82.3 12.8 82.3 12.8 82.3 12.7C82.1 11.3 81.6 10.1 80.9 8.90002C80.9 8.80002 80.8 8.80002 80.8 8.70002C80.2 7.90002 79.6 7.10002 78.7 6.50002C78.6 6.40002 78.4 6.30002 78.3 6.20002C78.2 6.20002 78.2 6.10002 78.1 6.10002C78 6.00002 77.8 5.90002 77.7 5.80002C77.6 5.70002 77.5 5.70002 77.4 5.60002C77.3 5.60002 77.3 5.50002 77.2 5.50002C77.1 5.40002 76.9 5.40002 76.8 5.30002C76.7 5.20002 76.6 5.20002 76.4 5.10002C76.3 5.10002 76.2 5.00002 76.2 5.00002C76 5.00002 75.9 5.00002 75.8 4.90002C75.7 4.80002 75.5 4.80002 75.3 4.80002H75.2C74.4 4.60002 73.5 4.40002 72.7 4.40002C72.5 4.40002 72.4 4.40002 72.2 4.40002C72 4.40002 71.9 4.40002 71.7 4.40002C71.1 4.50002 70.5 4.60002 69.9 4.70002C69.7 4.80002 69.5 4.80002 69.4 4.90002C69.3 5.00002 69.2 5.00002 69.2 5.00002C69.1 5.00002 69 5.10002 68.9 5.10002C68.8 5.20002 68.7 5.20002 68.5 5.30002C68.4 5.30002 68.4 5.40002 68.3 5.40002C68.2 5.50002 68 5.50002 67.9 5.60002C67.9 5.60002 67.9 5.60002 67.8 5.60002C67.7 5.70002 67.6 5.70002 67.5 5.80002C67.3 5.90002 67.3 6.00002 67.2 6.00002C67.1 6.00002 67.1 6.10002 67 6.10002C66.9 6.20002 66.7 6.30002 66.6 6.40002C65.5 7.30002 64.7 8.30002 64 9.50002C64 9.60002 63.9 9.60002 63.9 9.70002C63.9 9.70002 63.9 9.70002 63.9 9.80002C63.5 10.7 63.1 11.7 63 12.7C63 12.9 63 13.1 62.9 13.2C62.9 13.3 62.9 13.3 62.9 13.4C62.9 13.5 62.9 13.7 62.9 13.8C62.9 13.9 62.9 14 62.9 14.2C62.9 14.3 62.9 14.4 62.9 14.4C62.9 14.6 62.9 14.7 62.9 14.9C62.9 14.9 62.9 14.9 62.9 15C62.9 15.1 62.9 15.3 62.9 15.4C62.9 15.5 62.9 15.6 62.9 15.6C62.9 15.7 62.9 15.8 63 15.9C63 16.1 63.1 16.2 63.1 16.4V16.5C63.2 17 63.4 17.5 63.6 18.1L68.9 31.6C69.2 32.4 70.3 32.6 70.9 31.9C71.1 31.7 71.5 31.7 71.6 32C72 32.8 73.1 32.8 73.6 32L74.2 31C74.3 30.7 74.7 30.7 74.9 30.9L75.7 31.8C76.3 32.4 77.4 32.2 77.6 31.4L81.8 17.5C81.9 17.2 82 16.9 82.1 16.6C82.1 16.4 82.2 16.2 82.2 16C82.2 15.9 82.2 15.8 82.2 15.8C82.2 15.7 82.2 15.6 82.3 15.4C82.3 15.3 82.3 15.1 82.3 15C82.3 14.9 82.3 14.9 82.3 14.8C82.3 14.7 82.3 14.5 82.3 14.4C82.4 14.4 82.4 14.3 82.4 14.2ZM82.4 14.2C82.4 14.3 82.4 14.3 82.4 14.2ZM82.4 14.2C82.4 14.3 82.4 14.3 82.4 14.2Z" stroke="#666666" stroke-width="2" stroke-miterlimit="10"/>
<path d="M96.6 25.5H90.6V151.3H96.6V25.5Z" fill="#C69C6D" stroke="#666666" stroke-width="2" stroke-miterlimit="10"/>
<path d="M103.4 14.2C103.4 14.1 103.4 13.9 103.4 13.8C103.4 13.7 103.4 13.6 103.4 13.5C103.4 13.4 103.4 13.3 103.4 13.3C103.4 13.1 103.4 13 103.3 12.8C103.3 12.8 103.3 12.8 103.3 12.7C103.1 11.3 102.6 10.1 101.9 8.90002C101.9 8.80002 101.8 8.80002 101.8 8.70002C101.2 7.90002 100.6 7.10002 99.7 6.50002C99.6 6.40002 99.4 6.30002 99.3 6.20002C99.2 6.20002 99.2 6.10002 99.1 6.10002C99 6.00002 98.8 5.90002 98.7 5.80002C98.6 5.70002 98.5 5.70002 98.4 5.60002C98.3 5.60002 98.3 5.50002 98.2 5.50002C98.1 5.40002 97.9 5.40002 97.8 5.30002C97.7 5.20002 97.6 5.20002 97.4 5.10002C97.3 5.10002 97.2 5.00002 97.2 5.00002C97 5.00002 96.9 5.00002 96.8 4.90002C96.7 4.80002 96.5 4.80002 96.3 4.80002H96.2C95.4 4.60002 94.5 4.40002 93.7 4.40002C93.5 4.40002 93.4 4.40002 93.2 4.40002C93 4.40002 92.9 4.40002 92.7 4.40002C92.1 4.50002 91.5 4.60002 90.9 4.70002C90.7 4.80002 90.5 4.80002 90.4 4.90002C90.3 5.00002 90.2 5.00002 90.2 5.00002C90.1 5.00002 90 5.10002 89.9 5.10002C89.8 5.20002 89.7 5.20002 89.5 5.30002C89.4 5.30002 89.4 5.40002 89.3 5.40002C89.2 5.50002 89 5.50002 88.9 5.60002C88.9 5.60002 88.9 5.60002 88.8 5.60002C88.7 5.70002 88.6 5.70002 88.5 5.80002C88.3 5.90002 88.3 6.00002 88.2 6.00002C88.1 6.00002 88.1 6.10002 88 6.10002C87.9 6.20002 87.7 6.30002 87.6 6.40002C86.5 7.30002 85.7 8.30002 85 9.50002C85 9.60002 84.9 9.60002 84.9 9.70002C84.9 9.70002 84.9 9.70002 84.9 9.80002C84.5 10.7 84.1 11.7 84 12.7C84 12.9 84 13.1 83.9 13.2C83.9 13.3 83.9 13.3 83.9 13.4C83.9 13.5 83.9 13.7 83.9 13.8C83.9 13.9 83.9 14 83.9 14.2C83.9 14.3 83.9 14.4 83.9 14.4C83.9 14.6 83.9 14.7 83.9 14.9C83.9 14.9 83.9 14.9 83.9 15C83.9 15.1 83.9 15.3 83.9 15.4C83.9 15.5 83.9 15.6 83.9 15.6C83.9 15.7 83.9 15.8 84 15.9C84 16.1 84.1 16.2 84.1 16.4V16.5C84.2 17 84.4 17.5 84.6 18.1L89.9 31.6C90.2 32.4 91.3 32.6 91.9 31.9C92.1 31.7 92.5 31.7 92.6 32C93 32.8 94.1 32.8 94.6 32L95.2 31C95.3 30.7 95.7 30.7 95.9 30.9L96.7 31.8C97.3 32.4 98.4 32.2 98.6 31.4L102.8 17.5C102.9 17.2 103 16.9 103.1 16.6C103.1 16.4 103.2 16.2 103.2 16C103.2 15.9 103.2 15.8 103.2 15.8C103.2 15.7 103.2 15.6 103.3 15.4C103.3 15.3 103.3 15.1 103.3 15C103.3 14.9 103.3 14.9 103.3 14.8C103.3 14.7 103.3 14.5 103.3 14.4C103.4 14.4 103.4 14.3 103.4 14.2C103.4 14.3 103.4 14.3 103.4 14.2C103.4 14.3 103.4 14.3 103.4 14.2Z" fill="#FF1515"/>
<path d="M103.4 14.2C103.4 14.1 103.4 13.9 103.4 13.8C103.4 13.7 103.4 13.6 103.4 13.5C103.4 13.4 103.4 13.3 103.4 13.3C103.4 13.1 103.4 13 103.3 12.8C103.3 12.8 103.3 12.8 103.3 12.7C103.1 11.3 102.6 10.1 101.9 8.90002C101.9 8.80002 101.8 8.80002 101.8 8.70002C101.2 7.90002 100.6 7.10002 99.7 6.50002C99.6 6.40002 99.4 6.30002 99.3 6.20002C99.2 6.20002 99.2 6.10002 99.1 6.10002C99 6.00002 98.8 5.90002 98.7 5.80002C98.6 5.70002 98.5 5.70002 98.4 5.60002C98.3 5.60002 98.3 5.50002 98.2 5.50002C98.1 5.40002 97.9 5.40002 97.8 5.30002C97.7 5.20002 97.6 5.20002 97.4 5.10002C97.3 5.10002 97.2 5.00002 97.2 5.00002C97 5.00002 96.9 5.00002 96.8 4.90002C96.7 4.80002 96.5 4.80002 96.3 4.80002H96.2C95.4 4.60002 94.5 4.40002 93.7 4.40002C93.5 4.40002 93.4 4.40002 93.2 4.40002C93 4.40002 92.9 4.40002 92.7 4.40002C92.1 4.50002 91.5 4.60002 90.9 4.70002C90.7 4.80002 90.5 4.80002 90.4 4.90002C90.3 5.00002 90.2 5.00002 90.2 5.00002C90.1 5.00002 90 5.10002 89.9 5.10002C89.8 5.20002 89.7 5.20002 89.5 5.30002C89.4 5.30002 89.4 5.40002 89.3 5.40002C89.2 5.50002 89 5.50002 88.9 5.60002C88.9 5.60002 88.9 5.60002 88.8 5.60002C88.7 5.70002 88.6 5.70002 88.5 5.80002C88.3 5.90002 88.3 6.00002 88.2 6.00002C88.1 6.00002 88.1 6.10002 88 6.10002C87.9 6.20002 87.7 6.30002 87.6 6.40002C86.5 7.30002 85.7 8.30002 85 9.50002C85 9.60002 84.9 9.60002 84.9 9.70002C84.9 9.70002 84.9 9.70002 84.9 9.80002C84.5 10.7 84.1 11.7 84 12.7C84 12.9 84 13.1 83.9 13.2C83.9 13.3 83.9 13.3 83.9 13.4C83.9 13.5 83.9 13.7 83.9 13.8C83.9 13.9 83.9 14 83.9 14.2C83.9 14.3 83.9 14.4 83.9 14.4C83.9 14.6 83.9 14.7 83.9 14.9C83.9 14.9 83.9 14.9 83.9 15C83.9 15.1 83.9 15.3 83.9 15.4C83.9 15.5 83.9 15.6 83.9 15.6C83.9 15.7 83.9 15.8 84 15.9C84 16.1 84.1 16.2 84.1 16.4V16.5C84.2 17 84.4 17.5 84.6 18.1L89.9 31.6C90.2 32.4 91.3 32.6 91.9 31.9C92.1 31.7 92.5 31.7 92.6 32C93 32.8 94.1 32.8 94.6 32L95.2 31C95.3 30.7 95.7 30.7 95.9 30.9L96.7 31.8C97.3 32.4 98.4 32.2 98.6 31.4L102.8 17.5C102.9 17.2 103 16.9 103.1 16.6C103.1 16.4 103.2 16.2 103.2 16C103.2 15.9 103.2 15.8 103.2 15.8C103.2 15.7 103.2 15.6 103.3 15.4C103.3 15.3 103.3 15.1 103.3 15C103.3 14.9 103.3 14.9 103.3 14.8C103.3 14.7 103.3 14.5 103.3 14.4C103.4 14.4 103.4 14.3 103.4 14.2ZM103.4 14.2C103.4 14.3 103.4 14.3 103.4 14.2ZM103.4 14.2C103.4 14.3 103.4 14.3 103.4 14.2Z" stroke="#666666" stroke-width="2" stroke-miterlimit="10"/>
<path d="M123.3 41.6H1.5V188.9H123.3V41.6Z" fill="#EFAE73" stroke="#4D4D4D" stroke-width="3" stroke-miterlimit="10"/>
<path d="M99.6 175.7H22.7C16.9 175.7 12.1 171 12.1 165.1V62.4C12.1 56.6 16.8 51.8 22.7 51.8H99.6C105.4 51.8 110.2 56.5 110.2 62.4V165.1C110.2 170.9 105.5 175.7 99.6 175.7Z" fill="#93278F" stroke="#662D91" stroke-width="3" stroke-miterlimit="10"/>
<path d="M89.4 111.7C88.3 113.5 86.9 115 85.2 116.2C84.9 112.4 86.5 108.2 87.1 104.5L88.6 96C88.7 95.4 88.2 95 87.6 95.2C83.5 96.7 79.7 98.9 76.4 101.7L76.1 101.9L74.1 94.7C72.5 88.7 69.4 83.2 65.2 78.7L61.9 75.2C61 74.3 59.5 74.3 58.7 75.3L57.9 76.2C53.8 81 50.7 86.6 48.8 92.7L45.4 103.9L43.9 103.3C40.8 102.1 37.5 101.4 34.1 101.3C33.4 101.3 32.8 101.9 32.9 102.6V102.7C34.3 109.6 34.2 116.7 32.5 123.5C28.2 140.7 41 158.7 60.1 158.7C77.1 158.7 89.1 144.5 88.5 129.2C88.4 125.8 88.8 122.5 89.8 119.2C90.5 117.2 90.1 114.2 89.9 111.7C90.3 111.4 89.7 111.3 89.4 111.7Z" fill="#FBB03B"/>
<path d="M78.1 122.1C77.5 123.2 76.6 124.1 75.6 124.8C75.4 122.6 76.4 120 76.8 117.8L77.7 112.7C77.8 112.4 77.4 112.1 77.1 112.2C74.6 113.1 72.4 114.4 70.4 116.1L70.2 116.2L69 111.9C68 108.3 66.2 105 63.7 102.3L61.7 100.2C61.2 99.6 60.3 99.7 59.8 100.2L59.3 100.7C56.8 103.6 55 106.9 53.9 110.6L51.9 117.3L51 117C49.1 116.3 47.1 115.9 45.1 115.8C44.7 115.8 44.3 116.2 44.4 116.6C45.2 120.7 45.2 125 44.2 129.1C41.6 139.4 49.3 150.2 60.8 150.2C71 150.2 78.2 141.7 77.8 132.5C77.7 130.5 78 128.5 78.6 126.5C79 125.3 78.8 123.5 78.7 122C78.7 122 78.3 121.9 78.1 122.1Z" fill="#D87B27"/>
<path d="M68.4 132.8C68.1 133.3 67.8 133.6 67.3 133.9C67.2 132.9 67.6 131.9 67.8 130.9L68.2 128.7C68.2 128.6 68.1 128.4 68 128.5C67 128.9 66 129.4 65.1 130.2L65 130.3L64.5 128.5C64.1 127 63.3 125.6 62.2 124.4L61.4 123.5C61.2 123.3 60.8 123.3 60.6 123.5L60.4 123.7C59.3 124.9 58.6 126.3 58.1 127.9L57.2 130.7L56.8 130.6C56 130.3 55.2 130.1 54.3 130.1C54.1 130.1 54 130.3 54 130.4C54.3 132.2 54.3 134 53.9 135.7C52.8 140.1 56.1 144.7 60.9 144.7C65.2 144.7 68.3 141.1 68.1 137.2C68.1 136.3 68.2 135.5 68.4 134.7C68.6 134.2 68.5 133.4 68.4 132.8C68.5 132.7 68.6 132.7 68.4 132.8Z" fill="#F15A24"/>
</g>
<defs>
<clipPath id="clip0_76_69">
<rect width="124.8" height="190.4" fill="white"/>
</clipPath>
</defs>
</svg>
