<svg width="75" height="255" viewBox="0 0 75 255" fill="none" xmlns="http://www.w3.org/2000/svg">
<path d="M71.4 246.6H64.2L52 234.5V195.5H37.5H52V158H37.5H52V120.5H37.5H52V82.5H37.6H52V45.3H37.6H52V7.5H53.9C55 7.5 55.8 6.6 55.8 5.6V3.9C55.8 2.8 54.9 2 53.9 2H21.6C20.5 2 19.7 2.9 19.7 3.9V5.5C19.7 6.6 20.6 7.4 21.6 7.4H22.8V234.1L10.3 246.6H3.8C2.8 246.6 2 247.4 2 248.4V251.5C2 252.5 2.8 253.3 3.8 253.3H71.3C72.3 253.3 73.1 252.5 73.1 251.5V248.4C73.2 247.4 72.4 246.6 71.4 246.6Z" fill="white" stroke="#808080" stroke-width="3" stroke-miterlimit="10"/>
</svg>
