<svg width="38" height="207" viewBox="0 0 38 207" fill="none" xmlns="http://www.w3.org/2000/svg">
<path d="M34.7808 15.9855H3.40489C2.65562 15.9855 2 16.9221 2 18.046V20.1065C2 21.2304 2.65562 22.167 3.40489 22.167H4.62246V183.448C4.62246 191.129 7.33858 198.34 11.9279 202.368C16.4235 206.395 22.0431 206.395 26.4451 202.368C30.9407 198.34 33.7505 191.129 33.7505 183.448V22.167H34.7808C35.5301 22.167 36.1857 21.2304 36.1857 20.1065V18.046C36.1857 16.9221 35.5301 15.9855 34.7808 15.9855Z" fill="white" stroke="#808080" stroke-width="3" stroke-miterlimit="10"/>
<path d="M24.4783 198.902C21.2002 201.806 17.0792 201.806 13.8011 198.902C10.4294 195.999 8.46252 190.848 8.46252 185.322V123.225H29.9105L29.9105 185.322C29.8169 190.941 27.7564 195.999 24.4783 198.902Z" fill="#ACD4D6"/>
<path d="M13.8011 198.902C17.0791 201.806 21.2002 201.806 24.4782 198.902C26.9519 196.711 28.7323 193.294 29.4973 189.333C25.1987 185.855 20.8783 182.699 19.6789 182.699C18.6684 182.699 13.6638 186.211 8.89502 189.747C9.64746 193.505 11.3544 196.795 13.8011 198.902Z" fill="#FEBA48"/>
<path d="M25.5127 30.1281H11.5574C9.87157 30.1281 8.46668 28.8168 8.37302 27.0373L6.68715 4.27808C6.59349 2.49855 8.09204 1 9.87157 1H27.1986C28.9781 1 30.383 2.49855 30.383 4.27808L28.6971 27.131C28.6034 28.8168 27.1986 30.1281 25.5127 30.1281Z" fill="#4D4D4D" stroke="#666666" stroke-width="2" stroke-miterlimit="10"/>
<path d="M22.502 89.72V110H17.852V94.34L13.502 97.01L11.432 93.86L18.272 89.72H22.502Z" fill="black"/>
</svg>
