<svg width="128" height="128" viewBox="0 0 128 128" fill="none" xmlns="http://www.w3.org/2000/svg">
<path fill-rule="evenodd" clip-rule="evenodd" d="M48.6897 39.4282L39.7452 53.6771C39.607 53.8974 39.3884 54.0551 39.1359 54.1168L8.76313 61.5458C8.04037 61.7226 7.75694 62.5986 8.23917 63.1653L28.3932 86.847C28.5634 87.047 28.6481 87.3059 28.629 87.5678L26.377 118.469C26.3232 119.207 27.0616 119.746 27.7479 119.47L56.7455 107.79C56.9853 107.694 57.253 107.694 57.4927 107.79L86.4903 119.47C87.1767 119.746 87.9151 119.207 87.8613 118.469L85.6093 87.5678C85.5902 87.3059 85.6749 87.047 85.8451 86.847L96.1456 74.7435L83.9958 69.803C83.7543 69.7048 83.484 69.7048 83.2425 69.803L58.6587 79.7997C57.9722 80.0788 57.2313 79.5405 57.2846 78.8014L59.1953 52.3317C59.214 52.0716 59.1305 51.8145 58.9625 51.6152L48.6897 39.4282Z" fill="#464F60" fill-opacity="0.35"/>
<path d="M82.2699 9.36588C82.6612 8.73656 83.5771 8.73656 83.9684 9.36587L95.1333 27.3231C95.271 27.5445 95.4897 27.7034 95.7428 27.7659L116.271 32.8353C116.991 33.0129 117.274 33.884 116.796 34.4506L103.168 50.6182C103 50.8175 102.916 51.0746 102.935 51.3347L104.458 72.4249C104.511 73.164 103.77 73.7024 103.083 73.4233L83.4958 65.4582C83.2543 65.36 82.984 65.36 82.7425 65.4582L63.1549 73.4233C62.4684 73.7024 61.7274 73.1641 61.7808 72.4249L63.3031 51.3347C63.3219 51.0746 63.2384 50.8175 63.0703 50.6182L49.4422 34.4506C48.9646 33.884 49.2476 33.0129 49.967 32.8353L70.4955 27.7659C70.7486 27.7034 70.9673 27.5445 71.105 27.3231L82.2699 9.36588Z" fill="#464F60"/>
</svg>
