<svg width="116" height="116" viewBox="0 0 116 116" fill="none" xmlns="http://www.w3.org/2000/svg">
<circle cx="58" cy="58" r="58" fill="#EB949B"/>
<circle cx="58" cy="58" r="53" fill="#F5C563"/>
<path d="M103.703 36.6613C103.703 42.106 99.8806 47.5057 94.4359 47.5057C88.9912 47.5057 83 43.2891 83 37.8444C83 32.3997 88.9912 27 94.4359 27C99.8806 27 103.703 31.2166 103.703 36.6613Z" fill="#EB949B"/>
<path d="M100.745 38.0415C100.745 41.9617 97.3702 43.9566 93.45 43.9566C89.5298 43.9566 85.9575 41.9617 85.9575 38.0415C85.9575 34.1213 88.5439 29.7604 92.4641 29.7604C96.3843 29.7604 100.745 34.1213 100.745 38.0415Z" fill="#DC4443"/>
<path d="M80.7029 19.6613C80.7029 25.106 76.8806 30.5057 71.4359 30.5057C65.9912 30.5057 60 26.2891 60 20.8444C60 15.3997 65.9912 10 71.4359 10C76.8806 10 80.7029 14.2166 80.7029 19.6613Z" fill="#EB949B"/>
<path d="M77.7453 21.0415C77.7453 24.9617 74.3702 26.9566 70.45 26.9566C66.5298 26.9566 62.9575 24.9617 62.9575 21.0415C62.9575 17.1213 65.5439 12.7604 69.4641 12.7604C73.3843 12.7604 77.7453 17.1213 77.7453 21.0415Z" fill="#DC4443"/>
<path d="M59.7029 49.6613C59.7029 55.106 55.8806 60.5057 50.4359 60.5057C44.9912 60.5057 39 56.2891 39 50.8444C39 45.3997 44.9912 40 50.4359 40C55.8806 40 59.7029 44.2166 59.7029 49.6613Z" fill="#ADA3CA"/>
<path d="M56.7453 51.0415C56.7453 54.9617 53.3702 56.9566 49.45 56.9566C45.5298 56.9566 41.9575 54.9617 41.9575 51.0415C41.9575 47.1213 44.5439 42.7604 48.4641 42.7604C52.3843 42.7604 56.7453 47.1213 56.7453 51.0415Z" fill="#E8E8E9"/>
<path d="M90.7029 87.6613C90.7029 93.106 86.8806 98.5057 81.4359 98.5057C75.9912 98.5057 70 94.2891 70 88.8444C70 83.3997 75.9912 78 81.4359 78C86.8806 78 90.7029 82.2166 90.7029 87.6613Z" fill="#ADA3CA"/>
<path d="M87.7453 89.0415C87.7453 92.9617 84.3702 94.9566 80.45 94.9566C76.5298 94.9566 72.9575 92.9617 72.9575 89.0415C72.9575 85.1213 75.5439 80.7604 79.4641 80.7604C83.3843 80.7604 87.7453 85.1213 87.7453 89.0415Z" fill="#E8E8E9"/>
<path d="M29.7029 56.6613C29.7029 62.106 25.8806 67.5057 20.4359 67.5057C14.9912 67.5057 9 63.2891 9 57.8444C9 52.3997 14.9912 47 20.4359 47C25.8806 47 29.7029 51.2166 29.7029 56.6613Z" fill="#EB949B"/>
<path d="M26.7453 58.0415C26.7453 61.9617 23.3702 63.9566 19.45 63.9566C15.5298 63.9566 11.9575 61.9617 11.9575 58.0415C11.9575 54.1213 14.5439 49.7604 18.4641 49.7604C22.3843 49.7604 26.7453 54.1213 26.7453 58.0415Z" fill="#DC4443"/>
<path d="M35.7029 80.6613C35.7029 86.106 31.8806 91.5057 26.4359 91.5057C20.9912 91.5057 15 87.2891 15 81.8444C15 76.3997 20.9912 71 26.4359 71C31.8806 71 35.7029 75.2166 35.7029 80.6613Z" fill="#EB949B"/>
<path d="M32.7453 82.0415C32.7453 85.9617 29.3702 87.9566 25.45 87.9566C21.5298 87.9566 17.9575 85.9617 17.9575 82.0415C17.9575 78.1213 20.5439 73.7604 24.4641 73.7604C28.3843 73.7604 32.7453 78.1213 32.7453 82.0415Z" fill="#DC4443"/>
<path d="M56.7029 97.6613C56.7029 103.106 52.8806 108.506 47.4359 108.506C41.9912 108.506 36 104.289 36 98.8444C36 93.3997 41.9912 88 47.4359 88C52.8806 88 56.7029 92.2166 56.7029 97.6613Z" fill="#EB949B"/>
<path d="M53.7453 99.0415C53.7453 102.962 50.3702 104.957 46.45 104.957C42.5298 104.957 38.9575 102.962 38.9575 99.0415C38.9575 95.1213 41.5439 90.7604 45.4641 90.7604C49.3843 90.7604 53.7453 95.1213 53.7453 99.0415Z" fill="#DC4443"/>
<path d="M108.703 63.6613C108.703 69.106 104.881 74.5057 99.4359 74.5057C93.9912 74.5057 88 70.2891 88 64.8444C88 59.3997 93.9912 54 99.4359 54C104.881 54 108.703 58.2166 108.703 63.6613Z" fill="#EB949B"/>
<path d="M105.745 65.0415C105.745 68.9617 102.37 70.9566 98.45 70.9566C94.5298 70.9566 90.9575 68.9617 90.9575 65.0415C90.9575 61.1213 93.5439 56.7604 97.4641 56.7604C101.384 56.7604 105.745 61.1213 105.745 65.0415Z" fill="#DC4443"/>
<path d="M84.7029 57.6613C84.7029 63.106 80.8806 68.5057 75.4359 68.5057C69.9912 68.5057 64 64.2891 64 58.8444C64 53.3997 69.9912 48 75.4359 48C80.8806 48 84.7029 52.2166 84.7029 57.6613Z" fill="#EB949B"/>
<path d="M81.7453 59.0415C81.7453 62.9617 78.3702 64.9566 74.45 64.9566C70.5298 64.9566 66.9575 62.9617 66.9575 59.0415C66.9575 55.1213 69.5439 50.7604 73.4641 50.7604C77.3843 50.7604 81.7453 55.1213 81.7453 59.0415Z" fill="#DC4443"/>
<path d="M64.5629 73.9939C65.2516 74.0897 65.6347 74.8416 65.3074 75.4551C64.8114 76.1459 63.1549 76.2512 63 77.5C62.8451 78.7488 64.5629 80.1247 64.5629 80.1247C64.8243 80.769 64.3646 81.4768 63.6697 81.5001L61.707 81.5658C60.8249 81.5954 60.2132 82.8985 59.7447 83.5C59.3174 84.0485 58.4746 84.0043 58.107 83.4142C58.107 83.4142 58.107 81.5658 57.5 81C56.893 80.4342 55.1677 81.12 54.4125 81.015C53.7238 80.9192 53.3407 80.1672 53.668 79.5538C53.668 79.5538 55.5 78 55.5 77.5C55.5 77 54.1852 75.8612 53.8985 75.1546C53.6372 74.5103 54.0968 73.8025 54.7917 73.7793C54.7917 73.7793 56.5045 73.9343 57.5 74C58.4955 74.0657 58.2482 72.3809 58.7167 71.7794C59.144 71.2309 59.9868 71.275 60.3544 71.8652L61.3927 73.5321C61.9399 74.4105 63.7135 73.9939 64.5629 73.9939Z" fill="#AE7246"/>
<path d="M38.3965 38.6246C38.4196 39.3196 37.744 39.8254 37.0837 39.6075C36.3184 39.2366 35.932 37.6224 34.6751 37.6828C33.4182 37.7433 32.3555 39.6706 32.3555 39.6706C31.7652 40.0381 30.9894 39.7059 30.8479 39.0251L30.4483 37.1024C30.2687 36.2383 28.8803 35.8579 28.2077 35.4989C27.5943 35.1714 27.4941 34.3334 28.0129 33.8705C28.0129 33.8705 29.8341 33.5552 30.2881 32.8606C30.7421 32.166 29.772 30.5829 29.7466 29.8209C29.7235 29.126 30.3991 28.6202 31.0594 28.838C31.0594 28.838 32.9029 30.3781 33.3956 30.2928C33.8882 30.2075 34.7861 28.7176 35.4333 28.3147C36.0236 27.9472 36.7994 28.2794 36.9409 28.9601C36.9409 28.9601 37.0804 30.6742 37.1855 31.6664C37.2905 32.6585 38.9085 32.1273 39.5811 32.4864C40.1945 32.8139 40.2948 33.6518 39.776 34.1147L38.3106 35.4222C37.5384 36.1112 38.2516 37.7878 38.3965 38.6246Z" fill="#AE7246"/>
</svg>
