<svg width="78" height="19" viewBox="0 0 78 19" fill="none" xmlns="http://www.w3.org/2000/svg">
<path d="M6.41801 2.45929L3.60161 10.2839L1.74991 9.61735L4.56631 1.79279L6.41801 2.45929Z" fill="white"/>
<path fill-rule="evenodd" clip-rule="evenodd" d="M7.69759 1.85704L4.20384 11.5634L0.470335 10.2196L3.96408 0.513184L7.69759 1.85704ZM6.41801 2.45927L4.56631 1.79276L1.74991 9.61732L3.60161 10.2838L6.41801 2.45927Z" fill="#A79A8A"/>
<path d="M16.638 14.009L14.2027 13.4095L13.4127 6.57864C13.3393 7.21144 13.2637 7.76955 13.1859 8.25296C13.1177 8.73052 13.0043 9.29167 12.8456 9.93642L12.117 12.8961L10.4158 12.4773L12.4037 4.40234L14.7807 4.98752L15.6261 11.8444C15.7172 10.7381 15.8784 9.71499 16.1098 8.77505L16.913 5.51246L18.6259 5.93413L16.638 14.009Z" fill="white"/>
<path fill-rule="evenodd" clip-rule="evenodd" d="M17.37 15.2191L13.2891 14.2144L13.1399 12.9242L12.8489 14.1061L9.20572 13.2092L11.6717 3.19226L15.6888 4.18121L15.8631 5.59413L16.1811 4.30238L19.8359 5.20214L17.37 15.2191ZM16.1098 8.77502C15.8784 9.71496 15.7172 10.7381 15.6261 11.8444L14.7807 4.98749L12.4037 4.40231L10.4158 12.4772L12.117 12.896L12.8456 9.93639C13.0043 9.29164 13.1177 8.73049 13.1859 8.25293C13.2637 7.76952 13.3393 7.21141 13.4127 6.57861L14.2027 13.4095L16.638 14.009L18.6259 5.9341L16.913 5.51243L16.1098 8.77502Z" fill="#A79A8A"/>
<path d="M25.698 14.2381C25.6071 14.8959 25.4133 15.4223 25.1164 15.8174C24.8275 16.2136 24.4724 16.5038 24.0513 16.6879C23.637 16.881 23.1523 17.0281 22.5972 17.1291L22.2647 15.6779C22.632 15.5914 22.9148 15.473 23.1133 15.3227C23.3117 15.1724 23.4545 14.9862 23.5417 14.7641C23.6369 14.543 23.7091 14.2542 23.7583 13.8976L24.7139 6.97924L26.6634 7.24851L25.698 14.2381Z" fill="white"/>
<path fill-rule="evenodd" clip-rule="evenodd" d="M22.2647 15.6779C22.632 15.5914 22.9148 15.473 23.1133 15.3227C23.3117 15.1724 23.4545 14.9862 23.5417 14.7641C23.6369 14.543 23.7091 14.2542 23.7583 13.8976L24.7139 6.97924L26.6634 7.24851L25.698 14.2382C25.6071 14.8959 25.4133 15.4223 25.1164 15.8174C24.8275 16.2136 24.4724 16.5038 24.0513 16.6879C23.8992 16.7588 23.7376 16.8235 23.5665 16.882C23.4679 16.9157 23.3662 16.9473 23.2613 16.9769C23.0524 17.0358 22.8311 17.0865 22.5972 17.1291L22.2647 15.6779ZM24.4632 17.5992C23.9585 17.8331 23.3924 18.0008 22.7763 18.1129L21.836 18.284L21.0679 14.9326L22.0353 14.7046C22.3303 14.6351 22.4645 14.5596 22.5095 14.5255C22.5679 14.4813 22.5939 14.442 22.6109 14.3986L22.6168 14.3836L22.6232 14.3687C22.6699 14.2602 22.7253 14.0677 22.7677 13.7607L23.8601 5.85182L27.7908 6.39474L26.6886 14.375C26.5825 15.1429 26.3455 15.8436 25.9202 16.4123C25.5372 16.9357 25.0504 17.34 24.4632 17.5992Z" fill="#A79A8A"/>
<path d="M38.7849 13.6318C38.7661 14.1995 38.6254 14.7031 38.3626 15.1426C38.1079 15.5824 37.7325 15.9222 37.2363 16.1619C36.7401 16.4015 36.1401 16.5097 35.4365 16.4864C34.3811 16.4514 33.5864 16.157 33.0525 15.603C32.5185 15.049 32.2665 14.3202 32.2965 13.4167L32.4805 7.86377L34.4474 7.92896L34.2662 13.398C34.2484 13.9337 34.3351 14.3368 34.5263 14.6072C34.7257 14.87 35.0453 15.0086 35.485 15.0232C35.9328 15.0381 36.2608 14.9209 36.4692 14.6716C36.6858 14.4147 36.803 14.0183 36.8208 13.4826L37.002 8.01363L38.969 8.07881L38.7849 13.6318Z" fill="white"/>
<path fill-rule="evenodd" clip-rule="evenodd" d="M31.5142 6.83118L35.48 6.96262L35.2657 13.4311C35.2545 13.7664 35.2998 13.9306 35.326 13.9957C35.3534 14.0052 35.4128 14.0203 35.5182 14.0238C35.6264 14.0273 35.6881 14.0164 35.7164 14.009C35.744 13.9602 35.8095 13.8071 35.8214 13.4495L36.0357 6.98103L40.0016 7.11247L39.7844 13.6649C39.7607 14.3807 39.581 15.0509 39.2245 15.6497C38.8611 16.2744 38.3296 16.7443 37.6712 17.0623C36.9945 17.3892 36.2251 17.5131 35.4034 17.4859C34.1866 17.4455 33.1054 17.0989 32.3325 16.2969C31.5782 15.5143 31.2599 14.5061 31.2971 13.3836L31.5142 6.83118ZM38.3627 15.1426C38.6254 14.7031 38.7661 14.1994 38.7849 13.6317L38.969 8.0788L37.0021 8.01361L36.8208 13.4826C36.8031 14.0183 36.6859 14.4146 36.4692 14.6716C36.2609 14.9208 35.9328 15.038 35.485 15.0232C35.0453 15.0086 34.7257 14.87 34.5263 14.6072C34.3352 14.3367 34.2485 13.9336 34.2662 13.3979L34.4475 7.92894L32.4805 7.86375L32.2965 13.4167C32.2666 14.3202 32.5186 15.049 33.0525 15.6029C33.5864 16.1569 34.3811 16.4514 35.4365 16.4864C36.1402 16.5097 36.7401 16.4015 37.2363 16.1618C37.7325 15.9221 38.108 15.5824 38.3627 15.1426Z" fill="#A79A8A"/>
<path d="M47.4048 7.47159C48.0265 7.41849 48.572 7.46022 49.0414 7.59678C49.5186 7.73266 49.9599 7.96395 50.3652 8.29065L49.5474 9.43238C48.942 9.0184 48.3164 8.83897 47.6708 8.89411C47.328 8.92338 47.0631 9.01827 46.8761 9.17876C46.6884 9.33129 46.6058 9.53907 46.6283 9.80211C46.6439 9.98545 46.7007 10.1332 46.7986 10.2452C46.8958 10.3493 47.0604 10.4437 47.2924 10.5282C47.5245 10.6128 47.8698 10.7078 48.3284 10.8131C49.1965 11.012 49.8468 11.2937 50.2794 11.6582C50.7113 12.0147 50.9583 12.5557 51.0202 13.281C51.0645 13.7991 50.9721 14.2687 50.7431 14.6897C50.5134 15.1028 50.161 15.442 49.6858 15.7074C49.21 15.9648 48.6333 16.1224 47.9558 16.1803C47.2783 16.2381 46.6673 16.1819 46.1228 16.0116C45.5863 15.8407 45.1154 15.5918 44.7101 15.2651L45.6096 14.0923C45.9516 14.3361 46.2958 14.5115 46.6421 14.6184C46.9964 14.7246 47.3729 14.7607 47.7714 14.7267C48.178 14.692 48.4893 14.5771 48.7055 14.382C48.929 14.1782 49.0271 13.9169 48.9999 13.5981C48.9822 13.3908 48.9237 13.2232 48.8244 13.0952C48.7245 12.9592 48.5622 12.8446 48.3374 12.7514C48.1127 12.6582 47.7916 12.5651 47.3742 12.4723C46.4337 12.2716 45.7508 11.9847 45.3255 11.6115C44.9082 11.2377 44.673 10.7399 44.6199 10.1182C44.579 9.63989 44.6708 9.21053 44.8953 8.83005C45.119 8.4416 45.4499 8.13232 45.8879 7.90222C46.3252 7.66414 46.8309 7.5206 47.4048 7.47159Z" fill="white"/>
<path fill-rule="evenodd" clip-rule="evenodd" d="M49.5474 9.43242C48.942 9.01843 48.3164 8.83901 47.6708 8.89415C47.328 8.92342 47.0631 9.0183 46.8761 9.1788C46.6884 9.33132 46.6058 9.53911 46.6283 9.80215C46.6439 9.98548 46.7007 10.1332 46.7986 10.2453C46.8958 10.3494 47.0604 10.4437 47.2925 10.5283C47.5245 10.6128 47.8698 10.7078 48.3284 10.8131C49.1965 11.012 49.8468 11.2937 50.2794 11.6582C50.7113 12.0147 50.9583 12.5557 51.0202 13.2811C51.0645 13.7992 50.9721 14.2687 50.7431 14.6897C50.5134 15.1028 50.161 15.442 49.6858 15.7074C49.21 15.9648 48.6333 16.1225 47.9558 16.1803C47.2783 16.2382 46.6673 16.182 46.1228 16.0117C45.928 15.9496 45.7418 15.8772 45.5643 15.7946C45.3135 15.6779 45.08 15.5407 44.8638 15.383C44.8116 15.3449 44.7604 15.3056 44.7102 15.2652L45.6096 14.0924C45.9516 14.3362 46.2958 14.5115 46.6421 14.6184C46.9965 14.7247 47.3729 14.7608 47.7714 14.7267C48.178 14.692 48.4893 14.5771 48.7055 14.382C48.929 14.1783 49.0271 13.917 48.9999 13.5981C48.9822 13.3909 48.9237 13.2232 48.8244 13.0952C48.7245 12.9592 48.5622 12.8446 48.3374 12.7514C48.1127 12.6582 47.7916 12.5652 47.3742 12.4724C46.4337 12.2717 45.7508 11.9847 45.3255 11.6116C44.9082 11.2377 44.673 10.7399 44.6199 10.1182C44.579 9.63993 44.6708 9.21056 44.8953 8.83008C45.119 8.44163 45.4499 8.13236 45.8879 7.90225C46.3252 7.66418 46.8309 7.52063 47.4048 7.47162C48.0265 7.41853 48.572 7.46026 49.0414 7.59682C49.2019 7.64252 49.3584 7.69902 49.5107 7.76631C49.6753 7.83898 49.8352 7.92425 49.9902 8.02211C50.1185 8.10303 50.2435 8.19255 50.3652 8.29069L49.5474 9.43242ZM49.3179 6.63582C49.9294 6.81032 50.4891 7.10606 50.9928 7.51215L51.7283 8.10503L50.1072 10.3682C50.4082 10.517 50.6812 10.6897 50.92 10.8903C51.6135 11.4648 51.9391 12.2885 52.0166 13.196C52.076 13.8919 51.9521 14.5599 51.6215 15.1676L51.6171 15.1758C51.2841 15.7746 50.7858 16.2384 50.1735 16.5804L50.1617 16.587C49.5383 16.9243 48.8213 17.11 48.0409 17.1767C47.2583 17.2435 46.514 17.1818 45.8243 16.9661L45.8192 16.9645C45.1745 16.759 44.5917 16.4542 44.0825 16.0437L43.3226 15.4311L45.3272 12.8174C45.083 12.6849 44.8611 12.5345 44.666 12.3632L44.6582 12.3564C44.029 11.7928 43.6956 11.0475 43.6235 10.2033C43.5667 9.53867 43.6941 8.90035 44.0313 8.32649C44.358 7.76144 44.8331 7.32817 45.4163 7.02044C45.9909 6.70889 46.632 6.53397 47.3197 6.47525C48.0306 6.41454 48.7035 6.45749 49.3179 6.63582ZM45.9318 13.094L46.1901 13.2781C46.4571 13.4684 46.7048 13.5907 46.9332 13.6617C47.1565 13.7281 47.4046 13.7544 47.6863 13.7304C47.8206 13.7189 47.907 13.697 47.9602 13.6776C47.9583 13.6768 47.9563 13.676 47.9543 13.6751C47.8094 13.615 47.5551 13.5372 47.1611 13.4494C46.7237 13.3559 46.3101 13.2398 45.9318 13.094Z" fill="#A79A8A"/>
<path d="M61.4486 5.5021L61.559 7.02224L59.5474 7.42746L60.891 14.0975L58.9618 14.4861L57.6182 7.8161L55.5125 8.24028L55.2139 6.75806L61.4486 5.5021Z" fill="white"/>
<path fill-rule="evenodd" clip-rule="evenodd" d="M62.3638 4.29765L62.6202 7.82855L60.7252 8.21029L62.0688 14.8803L58.179 15.6639L56.8353 8.99388L54.7296 9.41806L54.0361 5.97522L62.3638 4.29765ZM57.6181 7.81609L58.9618 14.4861L60.891 14.0975L59.5474 7.42746L61.559 7.02223L61.4486 5.50209L55.2139 6.75805L55.5124 8.24027L57.6181 7.81609Z" fill="#A79A8A"/>
<path d="M69.8415 2.88994C70.9647 2.51543 71.9577 2.58491 72.8204 3.09838C73.6907 3.60933 74.3447 4.52127 74.7825 5.83421C75.0685 6.69179 75.171 7.47982 75.0901 8.1983C75.0168 8.91425 74.7664 9.52901 74.3389 10.0426C73.9165 10.5461 73.3372 10.9205 72.601 11.166C71.8649 11.4115 71.1768 11.4596 70.5367 11.3104C69.8966 11.1612 69.3299 10.8273 68.8366 10.3087C68.3483 9.78005 67.9586 9.07932 67.6676 8.20656C67.3842 7.35656 67.2791 6.57359 67.3524 5.85765C67.4333 5.13917 67.685 4.5282 68.1074 4.02472C68.5273 3.51366 69.1053 3.1354 69.8415 2.88994ZM70.297 4.256C69.7582 4.43567 69.4293 4.78988 69.3105 5.31862C69.1967 5.83724 69.3017 6.58227 69.6256 7.55369C69.9495 8.52511 70.3177 9.18663 70.7301 9.53823C71.1425 9.88984 71.6143 9.97708 72.1455 9.79994C72.692 9.61775 73.0221 9.26734 73.1359 8.74871C73.2547 8.21997 73.1509 7.46609 72.8245 6.48708C72.498 5.50807 72.1299 4.84655 71.72 4.50253C71.3102 4.15851 70.8358 4.07634 70.297 4.256Z" fill="white"/>
<path fill-rule="evenodd" clip-rule="evenodd" d="M75.105 10.6854L75.105 10.6854C74.5438 11.3542 73.7967 11.8215 72.9173 12.1147C72.0379 12.4079 71.16 12.4825 70.3097 12.2843C69.4626 12.0869 68.7274 11.6448 68.1121 10.998L68.107 10.9927L68.1019 10.9872C67.4946 10.3297 67.0428 9.49412 66.7189 8.52289C66.4013 7.57038 66.2668 6.64295 66.3576 5.75582L66.3586 5.74578L66.3587 5.74579C66.4591 4.85394 66.7786 4.0543 67.338 3.38593C67.8965 2.70788 68.6435 2.23527 69.5252 1.9413C70.8687 1.49334 72.1719 1.54976 73.3293 2.23757C74.4732 2.91023 75.2457 4.06201 75.7311 5.51791C76.0512 6.47792 76.184 7.41245 76.0844 8.30511C75.9918 9.2009 75.671 10.0053 75.1075 10.6824L75.105 10.6854ZM72.8204 3.0984C71.9577 2.58492 70.9647 2.51544 69.8415 2.88996C69.1053 3.13542 68.5273 3.51368 68.1074 4.02474C67.685 4.52821 67.4333 5.13919 67.3524 5.85766C67.2791 6.57361 67.3842 7.35658 67.6676 8.20658C67.9586 9.07934 68.3482 9.78006 68.8365 10.3088C69.3299 10.8273 69.8966 11.1612 70.5367 11.3104C71.1767 11.4596 71.8648 11.4115 72.601 11.166C73.3372 10.9206 73.9165 10.5461 74.3389 10.0426C74.7664 9.52903 75.0168 8.91426 75.0901 8.19832C75.171 7.47984 75.0684 6.69181 74.7825 5.83422C74.3447 4.52129 73.6907 3.60934 72.8204 3.0984ZM72.1602 8.52941L72.1602 8.52942C72.217 8.27682 72.1883 7.74065 71.8758 6.80341C71.5625 5.86381 71.2658 5.42686 71.0771 5.2685C70.9527 5.1641 70.8469 5.12678 70.6133 5.20468C70.3885 5.27961 70.3244 5.36965 70.2867 5.5353C70.234 5.7798 70.2643 6.30777 70.5743 7.23739C70.8837 8.16538 71.1811 8.60871 71.3788 8.77729C71.5139 8.89247 71.6168 8.92213 71.8292 8.8513C72.0758 8.76908 72.1282 8.67514 72.1591 8.53441L72.1602 8.52941ZM69.3104 5.31864C69.4293 4.78989 69.7581 4.43569 70.297 4.25602C70.8358 4.07635 71.3102 4.15853 71.72 4.50255C72.1299 4.84657 72.498 5.50808 72.8245 6.4871C73.1509 7.46611 73.2547 8.21999 73.1358 8.74873C73.022 9.26735 72.6919 9.61776 72.1455 9.79996C71.6143 9.9771 71.1424 9.88986 70.7301 9.53825C70.3177 9.18664 69.9495 8.52513 69.6256 7.55371C69.3017 6.58228 69.1966 5.83726 69.3104 5.31864Z" fill="#A79A8A"/>
</svg>
