<svg width="61" height="18" viewBox="0 0 61 18" fill="none" xmlns="http://www.w3.org/2000/svg">
<path d="M7.38846 12.2852C7.58506 12.9195 7.6327 13.4784 7.53137 13.9621C7.43768 14.4434 7.23915 14.8567 6.93579 15.202C6.64244 15.5526 6.26583 15.8913 5.80598 16.2181L4.8895 15.0449C5.18545 14.8107 5.39143 14.5836 5.50742 14.3634C5.62342 14.1431 5.67382 13.9139 5.65862 13.6758C5.65105 13.4352 5.59398 13.143 5.48739 12.7992L3.41953 6.1283L5.29929 5.54561L7.38846 12.2852Z" fill="white"/>
<path fill-rule="evenodd" clip-rule="evenodd" d="M4.88949 15.0449C5.18544 14.8108 5.39141 14.5836 5.50741 14.3634C5.62341 14.1432 5.6738 13.914 5.6586 13.6758C5.65104 13.4353 5.59396 13.1431 5.48737 12.7992L3.41952 6.12835L5.29928 5.54565L7.38845 12.2853C7.58505 12.9195 7.63268 13.4785 7.53135 13.9622C7.43766 14.4435 7.23914 14.8568 6.93578 15.2021C6.82808 15.3308 6.70917 15.4579 6.57904 15.5834C6.50403 15.6557 6.42529 15.7275 6.34282 15.7988C6.17864 15.9407 5.99969 16.0805 5.80596 16.2182L4.88949 15.0449ZM7.69521 15.8528C7.33727 16.2786 6.89568 16.6705 6.38525 17.0333L5.60623 17.5869L3.48961 14.8773L4.26906 14.2607C4.50673 14.0726 4.59631 13.9474 4.62264 13.8974C4.65674 13.8326 4.6636 13.786 4.66063 13.7395L4.6596 13.7234L4.65909 13.7072C4.65538 13.5891 4.62397 13.3913 4.53221 13.0953L2.16827 5.46927L5.95835 4.29441L8.34361 11.9892C8.57313 12.7296 8.65566 13.4647 8.51159 14.1601C8.38659 14.7965 8.11717 15.3691 7.69521 15.8528Z" fill="#C3DCD6"/>
<path d="M19.9113 8.01899C20.0079 8.57871 19.9721 9.1004 19.8039 9.58405C19.6436 10.0663 19.3448 10.4751 18.9074 10.8104C18.4701 11.1457 17.9045 11.3732 17.2108 11.4929C16.1702 11.6726 15.3323 11.5452 14.6972 11.1109C14.0621 10.6766 13.6676 10.0141 13.5139 9.12323L12.5688 3.64819L14.5081 3.31345L15.4389 8.70571C15.5301 9.2339 15.6966 9.61106 15.9386 9.8372C16.1871 10.0541 16.5282 10.1251 16.9618 10.0503C17.4033 9.97407 17.7008 9.79282 17.8543 9.50654C18.0144 9.211 18.0488 8.79914 17.9576 8.27095L17.0269 2.87869L18.9662 2.54395L19.9113 8.01899Z" fill="white"/>
<path fill-rule="evenodd" clip-rule="evenodd" d="M11.4133 2.83282L15.3235 2.15789L16.4243 8.53558C16.4814 8.86621 16.5589 9.01784 16.5979 9.07628C16.6266 9.08004 16.6878 9.08274 16.7917 9.06481C16.8984 9.04639 16.9566 9.02319 16.9828 9.01019C17 8.95684 17.0331 8.79359 16.9722 8.44101L15.8714 2.06332L19.7816 1.38839L20.8967 7.84886C21.0185 8.55461 20.9784 9.24729 20.7507 9.906C20.5214 10.5913 20.0961 11.1592 19.5158 11.604C18.9193 12.0613 18.191 12.3385 17.3809 12.4783C16.1811 12.6854 15.0522 12.565 14.1327 11.9364C13.2355 11.3228 12.7195 10.4001 12.5284 9.29329L11.4133 2.83282ZM19.8039 9.58402C19.9721 9.10036 20.0079 8.57867 19.9113 8.01895L18.9662 2.54391L17.0269 2.87866L17.9576 8.27092C18.0488 8.79911 18.0144 9.21097 17.8543 9.5065C17.7008 9.79279 17.4033 9.97404 16.9618 10.0502C16.5282 10.1251 16.1871 10.0541 15.9386 9.83716C15.6966 9.61103 15.5301 9.23387 15.4389 8.70568L14.5081 3.31342L12.5688 3.64816L13.5139 9.1232C13.6676 10.014 14.0621 10.6766 14.6972 11.1109C15.3323 11.5452 16.1702 11.6725 17.2108 11.4929C17.9045 11.3732 18.4701 11.1456 18.9074 10.8104C19.3448 10.4751 19.6436 10.0663 19.8039 9.58402Z" fill="#C3DCD6"/>
<path d="M29.2837 1.56286C29.9075 1.54815 30.4494 1.6234 30.9094 1.7886C31.3774 1.95361 31.8036 2.21164 32.188 2.56267L31.3015 3.65187C30.7227 3.20139 30.1094 2.98379 29.4616 2.99907C29.1177 3.00717 28.8474 3.08557 28.6509 3.23424C28.4541 3.37492 28.3589 3.57722 28.3651 3.84115C28.3694 4.0251 28.417 4.17602 28.5078 4.29391C28.5984 4.4038 28.7569 4.5081 28.9833 4.60679C29.2097 4.70548 29.5485 4.82152 29.9998 4.95492C30.854 5.20685 31.4857 5.52805 31.8951 5.91851C32.3042 6.30097 32.5173 6.8561 32.5345 7.5839C32.5468 8.10376 32.4256 8.56674 32.1711 8.97285C31.9165 9.37097 31.5438 9.68784 31.0532 9.92347C30.5625 10.1511 29.9772 10.2729 29.2974 10.289C28.6176 10.305 28.0112 10.2113 27.4782 10.0078C26.9533 9.80409 26.4986 9.52673 26.1142 9.17569L27.0842 8.06051C27.4105 8.3249 27.7433 8.52111 28.0824 8.64915C28.4295 8.777 28.803 8.83621 29.2029 8.82678C29.6108 8.81717 29.9286 8.72165 30.1564 8.54023C30.392 8.35062 30.506 8.09586 30.4985 7.77595C30.4936 7.56801 30.4455 7.39709 30.3543 7.2632C30.263 7.12132 30.108 6.99694 29.8894 6.89006C29.6708 6.78318 29.3561 6.67057 28.9452 6.55223C28.0188 6.29399 27.3549 5.96555 26.9534 5.56691C26.5599 5.16807 26.3558 4.65674 26.3411 4.03291C26.3297 3.55305 26.4478 3.13015 26.6953 2.76421C26.9425 2.39028 27.2918 2.10197 27.7432 1.89927C28.1943 1.68857 28.7078 1.57644 29.2837 1.56286Z" fill="white"/>
<path fill-rule="evenodd" clip-rule="evenodd" d="M31.3015 3.65182C30.7227 3.20133 30.1094 2.98373 29.4616 2.99901C29.1177 3.00712 28.8474 3.08551 28.6509 3.23418C28.4542 3.37486 28.3589 3.57716 28.3651 3.84109C28.3695 4.02504 28.417 4.17596 28.5078 4.29385C28.5985 4.40374 28.757 4.50804 28.9833 4.60673C29.2097 4.70542 29.5486 4.82146 29.9998 4.95486C30.854 5.2068 31.4858 5.52799 31.8951 5.91845C32.3042 6.30091 32.5174 6.85604 32.5345 7.58384C32.5468 8.1037 32.4257 8.56668 32.1712 8.97279C31.9165 9.37091 31.5438 9.68778 31.0533 9.92341C30.5625 10.151 29.9772 10.2729 29.2974 10.2889C28.6176 10.3049 28.0112 10.2112 27.4782 10.0077C27.2876 9.93375 27.1063 9.85008 26.9342 9.75669C26.6911 9.62475 26.4665 9.47342 26.2603 9.3027C26.2106 9.26148 26.1619 9.21912 26.1143 9.17563L27.0842 8.06046C27.4106 8.32484 27.7433 8.52105 28.0824 8.64909C28.4295 8.77694 28.803 8.83615 29.2029 8.82673C29.6108 8.81711 29.9286 8.72159 30.1564 8.54017C30.392 8.35056 30.506 8.0958 30.4985 7.77589C30.4936 7.56795 30.4455 7.39703 30.3543 7.26315C30.263 7.12126 30.108 6.99688 29.8894 6.89C29.6708 6.78313 29.3561 6.67051 28.9452 6.55217C28.0188 6.29393 27.3549 5.96549 26.9534 5.56685C26.5599 5.16801 26.3558 4.65668 26.3411 4.03286C26.3298 3.55299 26.4478 3.13009 26.6953 2.76415C26.9425 2.39022 27.2918 2.10191 27.7432 1.89921C28.1943 1.68852 28.7078 1.57638 29.2837 1.5628C29.9075 1.54809 30.4494 1.62334 30.9094 1.78854C31.0669 1.84404 31.2195 1.91006 31.3675 1.98661C31.5273 2.06928 31.6816 2.16423 31.8303 2.27145C31.9534 2.36012 32.0726 2.45717 32.188 2.56261L31.3015 3.65182ZM31.2447 0.846393C31.8443 1.05822 32.3846 1.38786 32.8624 1.8242L33.56 2.46124L31.8026 4.62026C32.0939 4.78732 32.3557 4.97649 32.5817 5.19145C33.2385 5.80761 33.5128 6.64979 33.5342 7.56027C33.5507 8.25854 33.3859 8.9176 33.0185 9.50381L33.0136 9.51171C32.6443 10.0889 32.1184 10.5212 31.4862 10.8248L31.4741 10.8307C30.831 11.1289 30.104 11.2702 29.321 11.2886C28.5358 11.3071 27.7967 11.1997 27.1215 10.9419L27.1165 10.94C26.4857 10.6952 25.9228 10.3551 25.4399 9.91404L24.7192 9.25582L26.8809 6.77054C26.6453 6.62325 26.4331 6.4594 26.2488 6.27648L26.2415 6.26923C25.6482 5.66787 25.3613 4.90351 25.3414 4.05643C25.3256 3.38958 25.4921 2.76032 25.864 2.20832C26.2248 1.66445 26.7257 1.26126 27.3267 0.990026C27.9195 0.714459 28.5701 0.579349 29.2601 0.56308C29.9734 0.54626 30.6423 0.630567 31.2447 0.846393ZM27.4673 7.0838L27.7137 7.28346C27.9685 7.48985 28.2082 7.62715 28.4318 7.71211C28.6506 7.79213 28.8966 7.83367 29.1793 7.827C29.314 7.82383 29.4016 7.8073 29.4559 7.79121C29.454 7.79027 29.4521 7.78932 29.4502 7.78836C29.3092 7.71943 29.0602 7.6261 28.6723 7.51423C28.2416 7.39396 27.8359 7.25263 27.4673 7.0838Z" fill="#C3DCD6"/>
<path d="M45.2612 2.72734L44.8927 4.20627L42.8549 3.96494L42.0547 10.7217L40.1004 10.4903L40.9006 3.73349L38.7675 3.48088L38.9453 1.97937L45.2612 2.72734Z" fill="white"/>
<path fill-rule="evenodd" clip-rule="evenodd" d="M46.5059 1.86778L45.65 5.30296L43.7304 5.07562L42.9302 11.8324L38.9897 11.3657L39.7899 4.60896L37.6568 4.35634L38.0699 0.868713L46.5059 1.86778ZM40.9006 3.7335L40.1004 10.4903L42.0547 10.7217L42.8549 3.96495L44.8927 4.20628L45.2612 2.72735L38.9453 1.97938L38.7675 3.48089L40.9006 3.7335Z" fill="#C3DCD6"/>
<path d="M55.8328 4.80603C56.9736 5.12312 57.7582 5.73563 58.1867 6.64355C58.6229 7.55362 58.6557 8.67537 58.285 10.0088C58.0429 10.8798 57.6876 11.5906 57.219 12.1412C56.7581 12.694 56.2069 13.0639 55.5654 13.2509C54.9337 13.4324 54.2441 13.4192 53.4964 13.2114C52.7488 13.0035 52.1512 12.6589 51.7038 12.1775C51.2564 11.6961 50.973 11.1025 50.8537 10.3968C50.7442 9.68547 50.8126 8.88662 51.059 8.00023C51.299 7.13696 51.6494 6.42894 52.1102 5.87617C52.5788 5.32555 53.129 4.95951 53.7606 4.77805C54.3944 4.58888 55.0852 4.59821 55.8328 4.80603ZM55.4472 6.19343C54.8999 6.04131 54.4293 6.15129 54.0352 6.52335C53.6511 6.88985 53.3218 7.56639 53.0476 8.55299C52.7734 9.53958 52.709 10.2939 52.8545 10.8159C53 11.338 53.3425 11.674 53.8821 11.824C54.437 11.9782 54.9066 11.8721 55.2908 11.5056C55.6848 11.1335 56.02 10.4504 56.2964 9.45605C56.5728 8.46175 56.6372 7.70743 56.4895 7.1931C56.3419 6.67877 55.9944 6.34555 55.4472 6.19343Z" fill="white"/>
<path fill-rule="evenodd" clip-rule="evenodd" d="M55.8415 14.2121L55.8415 14.212C55.0024 14.4531 54.1218 14.4231 53.2286 14.1748C52.3355 13.9266 51.5657 13.4978 50.9713 12.8583C50.3793 12.2212 50.0166 11.4438 49.8677 10.5636L49.8665 10.5563L49.8653 10.549C49.7291 9.66422 49.8214 8.71883 50.0955 7.73243C50.3644 6.76505 50.7711 5.92076 51.3422 5.23582L51.3487 5.22807L51.3487 5.2281C51.9303 4.54462 52.6422 4.06003 53.4796 3.81837C54.3216 3.56817 55.2052 3.59369 56.1006 3.84258C57.4651 4.22186 58.5143 4.99692 59.0898 6.21408C59.6626 7.41117 59.6595 8.79801 59.2485 10.2766C58.9775 11.2517 58.5653 12.1008 57.9839 12.7854C57.4065 13.4766 56.691 13.9644 55.8453 14.211L55.8415 14.2121ZM58.1867 6.64357C57.7582 5.73565 56.9736 5.12314 55.8328 4.80605C55.0852 4.59823 54.3944 4.5889 53.7606 4.77807C53.129 4.95953 52.5788 5.32557 52.1103 5.87619C51.6494 6.42896 51.299 7.13698 51.059 8.00025C50.8126 8.88664 50.7442 9.68549 50.8537 10.3968C50.973 11.1025 51.2564 11.6961 51.7038 12.1775C52.1513 12.6589 52.7488 13.0036 53.4964 13.2114C54.2441 13.4192 54.9338 13.4324 55.5654 13.2509C56.207 13.0639 56.7581 12.694 57.219 12.1412C57.6876 11.5906 58.0429 10.8798 58.285 10.0088C58.6557 8.67539 58.6229 7.55364 58.1867 6.64357ZM54.6043 10.7785L54.6043 10.7785C54.7925 10.6008 55.0684 10.1401 55.333 9.18826C55.5982 8.23399 55.5963 7.70581 55.5284 7.46905C55.4836 7.31297 55.4166 7.22287 55.1794 7.15692C54.9511 7.09347 54.8476 7.13229 54.7238 7.2486C54.5434 7.4219 54.2735 7.87669 54.0111 8.82082C53.7491 9.7633 53.748 10.2972 53.8178 10.5475C53.8655 10.7185 53.9342 10.8005 54.1499 10.8605C54.4004 10.9301 54.4963 10.8815 54.6006 10.7821L54.6043 10.7785ZM54.0353 6.52337C54.4293 6.15131 54.8999 6.04133 55.4472 6.19345C55.9944 6.34557 56.3419 6.67879 56.4895 7.19312C56.6372 7.70745 56.5728 8.46177 56.2964 9.45607C56.0201 10.4504 55.6848 11.1336 55.2908 11.5056C54.9066 11.8721 54.4371 11.9782 53.8821 11.824C53.3425 11.674 53 11.338 52.8545 10.816C52.709 10.2939 52.7734 9.5396 53.0476 8.55301C53.3219 7.56642 53.6511 6.88987 54.0353 6.52337Z" fill="#C3DCD6"/>
</svg>
