<?xml version="1.0" encoding="UTF-8" standalone="no"?><!DOCTYPE svg PUBLIC "-//W3C//DTD SVG 1.1//EN" "http://www.w3.org/Graphics/SVG/1.1/DTD/svg11.dtd"><svg width="100%" height="100%" viewBox="0 0 30 30" version="1.1" xmlns="http://www.w3.org/2000/svg" xmlns:xlink="http://www.w3.org/1999/xlink" xml:space="preserve" xmlns:serif="http://www.serif.com/" style="fill-rule:evenodd;clip-rule:evenodd;stroke-linejoin:round;stroke-miterlimit:2;"><g><g><path d="M15.077,0.242l-0.009,-0c-8.134,0.006 -14.824,6.701 -14.824,14.835c-0,8.139 6.697,14.836 14.835,14.836c8.139,-0 14.836,-6.697 14.836,-14.836l0,-0.003c-0.003,-8.138 -6.7,-14.832 -14.838,-14.832Zm-0.008,1.047l0.008,-0c7.564,-0 13.788,6.222 13.791,13.786c0,-0 0,0.002 0,0.002c0,7.565 -6.224,13.789 -13.789,13.789c-7.564,0 -13.788,-6.224 -13.788,-13.789c-0,-7.56 6.217,-13.783 13.778,-13.788Z" style="fill:#fff;"/><path d="M15.068,0.765c-7.847,0.006 -14.301,6.465 -14.301,14.312c0,7.852 6.461,14.313 14.312,14.313c7.852,-0 14.313,-6.461 14.313,-14.313c-0,-0.001 -0,-0.001 -0,-0.002c-0.003,-7.851 -6.464,-14.31 -14.315,-14.31c-0.003,0 -0.006,0 -0.009,0Z" style="fill:#e13828;fill-rule:nonzero;"/><path d="M19.289,15.613l-9.54,9.544l-4.335,-4.338l9.557,-9.538l-3.585,-3.585l10.91,0.559l0.509,10.874l-3.516,-3.516Z" style="fill:#fff;fill-rule:nonzero;"/></g></g></svg>